<svg xmlns="http://www.w3.org/2000/svg" viewBox="0 0 24 22"><defs><style>.a{fill:#d9223f;}</style></defs><path class="a" d="M24,23H21.22l-1.07-3H15.27l-1.08,3H11.5l4.94-13H19Zm-4.57-5.07L17.72,13,16,17.93ZM10.18,7.13c.12-.49.2-.86.27-1.22l-2.2-.42c0,.18-.11.53-.22,1a9.13,9.13,0,0,0-2.34,0c0-.54.06-1.07.1-1.57H8.25V2.79H6.09a9.88,9.88,0,0,1,.29-1.15L4.23,1a14.09,14.09,0,0,0-.42,1.79H1.36V4.88H3.54c-.06.67-.09,1.37-.1,2.07C1,7.84,0,9.53,0,11.06a3.19,3.19,0,0,0,3.68,3.19c2.81-.25,4.68-2.37,5.77-5a2.19,2.19,0,0,1,1.18,2.77c-.39.94-1.56,1.84-3.78,1.79v2.25c2.47,0,4.9-.9,5.85-3.17A4.48,4.48,0,0,0,10.18,7.13ZM7.28,8.66a7.86,7.86,0,0,1-1.39,2.15c-.09-.65-.15-1.36-.19-2.11A7.66,7.66,0,0,1,7.28,8.66Zm-3.79.72A22.81,22.81,0,0,0,3.81,12C1.82,12.34,1.74,10.37,3.49,9.38Z" transform="translate(0 -1)"/></svg>