<svg xmlns="http://www.w3.org/2000/svg" viewBox="0 0 129.6 145.77"><defs><style>.a{fill:#ff9a02;}.a,.b,.c{fill-rule:evenodd;}.b{fill:#fff;}.c{fill:#fcfcfc;}</style></defs><path class="a" d="M295.83,423.33a42.34,42.34,0,0,1,14.52,2.55c-3.17,13.32-9.41,21.54-16.13,26.42C286,445.86,282,435.67,282,425.63c.52-.18,1-.35,1.57-.51l.24,1.15.57-1.38.91-.25c0,.95,0,2.26,0,2.42a6.73,6.73,0,0,0,.37,1.2l1.36-2.92-.1,3.76.44.54,1.49-3.37-.33,2.8.73,1.82.79-2.41v1.39l.31,1.85.67.31.19-2.08.5,1.64,2,1.43-1.07-2-1.33-2.62L289,423.88a42.85,42.85,0,0,1,6.84-.55Zm-7.7,32.5A33.47,33.47,0,0,1,280,458.3l-2,.26h0a21.28,21.28,0,0,0-2.46.37,106.22,106.22,0,0,0-21.86,5.82,42.11,42.11,0,0,1,24.77-37.65,43.39,43.39,0,0,0,2.4,13.89c2.8,8.74,5.88,13.09,7.38,14.84Zm27.59-27.55a42.09,42.09,0,0,1,22.35,36.47,114.62,114.62,0,0,0-36.51-7.28c11.17-11.14,14.14-29.1,14.16-29.19Z" transform="translate(-232 -348.89)"/><path class="b" d="M295.83,460.06c18.91,0,36.12,4,49,10.64a212.89,212.89,0,0,0-98,0c12.86-6.6,30.07-10.64,49-10.64Z" transform="translate(-232 -348.89)"/><path class="b" d="M268.08,381.89c-2.31-.07-4.15-.47-5.3.27s-5.1,4.33-6.95,5.19c0,0,3.49-.43,4.85-1.3a22.2,22.2,0,0,1,4.88-2.6,6.38,6.38,0,0,1,1.57-.22l-2,2.76a5.75,5.75,0,0,0,2.07-1,9.73,9.73,0,0,1,1.72-1.17,10.18,10.18,0,0,1,2-.48,5.62,5.62,0,0,0,2.15-.85l-3.39-.38a6.06,6.06,0,0,1,1.22-1,21.61,21.61,0,0,1,5.21-1.85c1.56-.42,4.24-2.7,4.24-2.7-1.88.78-7.19,1.28-8.52,1.62s-2.27,2-3.77,3.72Zm-.49-16.16c-1.77-.06-3.18-.37-4.06.2s-3.92,3.32-5.33,4a12.51,12.51,0,0,0,3.72-1,16.88,16.88,0,0,1,3.74-2,4.92,4.92,0,0,1,1.2-.17l-1.53,2.12a4.36,4.36,0,0,0,1.59-.78,7.35,7.35,0,0,1,1.31-.9,7.84,7.84,0,0,1,1.56-.36,4.47,4.47,0,0,0,1.64-.65l-2.6-.3a5.3,5.3,0,0,1,.94-.77,16.71,16.71,0,0,1,4-1.41,12.66,12.66,0,0,0,3.24-2.07c-1.44.6-5.51,1-6.53,1.24s-1.74,1.52-2.89,2.86Zm-12.48,11.66c-1.51,0-2.72-.31-3.47.18s-3.34,2.83-4.55,3.4a11.06,11.06,0,0,0,3.18-.85,13.68,13.68,0,0,1,3.2-1.7,3.77,3.77,0,0,1,1-.15l-1.31,1.81a3.78,3.78,0,0,0,1.36-.66,5.79,5.79,0,0,1,1.12-.77,6.07,6.07,0,0,1,1.33-.31,3.77,3.77,0,0,0,1.4-.56l-2.21-.25a3.7,3.7,0,0,1,.8-.66,14.46,14.46,0,0,1,3.41-1.21,10.67,10.67,0,0,0,2.77-1.77c-1.23.51-4.71.84-5.58,1.06s-1.48,1.3-2.47,2.44Z" transform="translate(-232 -348.89)"/><path class="b" d="M303.42,372.3c1.52,1.05,4.55,2.18,5.22,3.53-2.74-1.67-3.39-.94-5.22-3.53ZM276.94,464c.31-.12.62-.22.93-.32,8-3.1,18.71-9.29,23.8-15.19a27,27,0,0,1,5.54,2.17,25.2,25.2,0,0,0-4.69-3.19,43.31,43.31,0,0,0,4.14-6.24A26.82,26.82,0,0,1,311,443a22.32,22.32,0,0,0-3.86-2.69,54.52,54.52,0,0,0,3-6.81,26.65,26.65,0,0,1,3.8,1.19,21.51,21.51,0,0,0-3.51-2,65,65,0,0,0,1.82-6.31,25.9,25.9,0,0,1,3.34.75,20,20,0,0,0-3.16-1.53c.38-1.7.71-3.45,1-5.22q1.19.21,2.7.63a20.28,20.28,0,0,0-2.6-1.29c.2-1.49.37-3,.49-4.53.7.1,1.48.25,2.35.44a19,19,0,0,0-2.31-1c.09-1.16.15-2.33.18-3.5.68.1,1.42.24,2.25.43a18.16,18.16,0,0,0-2.24-1q0-1.8,0-3.6c.67.05,1.41.14,2.24.27a18.69,18.69,0,0,0-2.26-.86c0-1.22-.1-2.44-.19-3.67.69,0,1.47.14,2.32.28A17.51,17.51,0,0,0,314,402c-.09-1.17-.22-2.34-.37-3.51.61.05,1.28.13,2,.25a17.18,17.18,0,0,0-2.08-.8,45.88,45.88,0,0,0-.86-5.61,2.11,2.11,0,0,1-1.16.38c.29,1.55,1.72,9.62,1.1,15.59,0,0-.57-10.33-3-16.74h0a2.1,2.1,0,0,1-.22-.94,2,2,0,0,1,.09-.6,1.81,1.81,0,0,1-.57-.12,7.7,7.7,0,0,1-.44,3.14c-.21-2.82-1.93-6.14-1.28-8.42,0,0-1.05,1.86-.32,5.68s.55,6-.26,7.72a13.59,13.59,0,0,0-.37-4.19c-.58-2.53-1.43-4.53-1-6.21-1.8,2.61,2,9.37-1.53,13.46,1.22-2.54-.67-8-.37-10-1.55,2.85,1,5.47-1.5,9.67a11.55,11.55,0,0,0-.4-4.78,7.62,7.62,0,0,1-1.82,5.42,7.83,7.83,0,0,0,.27-2.72,7.38,7.38,0,0,1-4.92,3.95c1.44-1.75,1.55-4.83,4-7.54a11.47,11.47,0,0,0-3.31,3.42,12.07,12.07,0,0,1,3.28-5.85s-.83.1-2.39,1.82a16.91,16.91,0,0,1,2.2-4.49,4,4,0,0,0-1.35.93A21.48,21.48,0,0,1,306,380.79c-3.75-.53-8.84-.34-11.93,1.74-2.26,1.51-2.09,4.44-3.57,6.93,2.27-.87,2.58-6.15,6.1-7.54-2,2.09-1.83,4.21-3.23,6.8,2.51-1.49,2.65-6.45,6.88-7.58-2.06,2.05-2,4.18-3,6.14,1.89-1.59,2.16-5.56,6-6.17-3.57,2.44-4.57,8.69-8.23,8.83a20.14,20.14,0,0,0,2.21-5.17c-3,6.16-5.86,6-5.86,6a9.7,9.7,0,0,0,1.55-3.16c-1.51,3.65-4.09,3.28-4.09,3.28.86-1,2-4.38,2-4.38-1.33,3.22-2.84,4.16-4.47,4.28a20.66,20.66,0,0,0,1.4-2.78c-1.3,2.65-3.46,2.75-4.47,2.38a7.43,7.43,0,0,0,1.73-1.87c-2.18,2.17-6.12.5-6.12.5,3.87-.87,5.25-2.67,7.65-3.5a16.94,16.94,0,0,0-5.86,1.16,12.83,12.83,0,0,1,8.37-2.82,11.78,11.78,0,0,0-5.93-.12c3.62-2.08,8.64-1.54,8.64-1.54a13.12,13.12,0,0,0-6.27-.79c3.49-1.77,8.73-.77,8.73-.77-1.79-1.15-5.36-1.2-5.36-1.2,3.85-1.34,8.79,0,8.79,0-1.49-1.4-5.91-1.61-5.91-1.61a17.77,17.77,0,0,1,9.1.88A12.09,12.09,0,0,0,297.1,377a17.55,17.55,0,0,1,9,2.9c-3.19-3-7.24-3.78-10.61-4.05a18,18,0,0,1,7.22.1c-6.51-2.63-8.84.42-13.82-.77,3.62-.09,6.95-2.34,11.43-1.14-5.1-2.94-9.19,1-14.84.35,4.28-.74,6.52-2.63,10.93-2.74-4.42-1.67-8.5,2-12.67,1.73,2.87-.59,4.94-2.27,8.22-3-4.47-.18-6.46,2.05-11,2.47a47.68,47.68,0,0,0,6.07-3,18.57,18.57,0,0,0-8.23,3.21c4.32-5.13,9.45-4.62,9.45-4.62a15.35,15.35,0,0,0-2.16-.65,17,17,0,0,1,6.34.71,12,12,0,0,0-1.88-1.17,14.3,14.3,0,0,1,6.89,2.65,7.19,7.19,0,0,0-1.77-1.92,14.39,14.39,0,0,1,6.3,4.09,10.54,10.54,0,0,0-.77-2c1.41,1.33,6.5,2.92,7.91,4-1.87-2.85-6.86-2.95-9.8-6.42,2,1.37,6.63,1.81,8.69,3.81-3.14-4.4-8.6-3.12-11.89-7,3.55,2.08,6.7,1.87,9.19,2.75-3.39-2.22-8.08-2.55-10.2-5.08a26.14,26.14,0,0,0,6.27,1.62c-2.56-1.77-5.74-1.87-7.06-4.34,2.16,1.51,4,1.38,6.26,2.41-2.38-2.08-5.9-2.71-7.53-5.08a11.27,11.27,0,0,0,5.13,1.89,23,23,0,0,0-5.86-3.75c4.78.69,7,2.36,7,2.36a4.67,4.67,0,0,0-.95-1.49,11,11,0,0,1,5.21,4A4.62,4.62,0,0,0,303,358a9.23,9.23,0,0,1,3.95,5.14,4.48,4.48,0,0,0-.19-2.07,7.65,7.65,0,0,1,2.17,4.82,12,12,0,0,0,0-2.42c3.7,3.45,1,8.2,2.12,10.68,1.54-3.88.13-7.9.65-9.95a15.4,15.4,0,0,0,1.12,3.51c.12-2.45-1.17-4-.31-7.17,0,0,0,3.43,1.41,5.12.2-1-1.65-4.61-.27-8.31-.19,3.85,1.07,5.53,1.34,5.76a11,11,0,0,1,.17-7.58s-.35,3.21.64,4.95c0,0-.67-4.64,1.45-7.88,0,0-.53,2.86-.19,3.74a14.69,14.69,0,0,1,4.78-7.43,9.86,9.86,0,0,1-1.51,5.81,10,10,0,0,0,2.36-2.59s-.56,4.21-2.82,6.35a7.48,7.48,0,0,0,2.73-2.91,12.32,12.32,0,0,1-3.26,6.93,10,10,0,0,0,3-3.12A15.36,15.36,0,0,1,319,366.2a12.07,12.07,0,0,0,3.34-3.76,13.36,13.36,0,0,1-1.72,4,15,15,0,0,1,3.61-2.41,4.31,4.31,0,0,0-.92,1.54,18.45,18.45,0,0,1,4.75-2.74c-1.76,1.83-1.81,2.74-1.81,2.74a13.2,13.2,0,0,1,6.15-4,12.55,12.55,0,0,0-3.49,3.87c3-3.14,5.13-3.41,7.11-5.81-.1,3.09-1.57,4.36-1.57,4.36a5.94,5.94,0,0,0,2.31-1.62,6.24,6.24,0,0,1-3.55,3.81c1.3-.23,3.18-.42,3.18-.42-1.67,1.87-3.72,2.12-4.64,2.58a31.06,31.06,0,0,1,3.2,0c-3.09,2.45-6.39,2.18-8.95,3.21,2-.32,3.12.12,6.69-.33a29.22,29.22,0,0,1-4.64,2.36,8.34,8.34,0,0,1,3.42.44,2.34,2.34,0,0,0-.79.49,7,7,0,0,1,3,1.35,4.45,4.45,0,0,0-1.59.28c.83.11,4,3.38,4,3.38-1.82-1.17-3.29-1.36-5.5-2.69a9.55,9.55,0,0,0,2.87,2.44c-2-.39-4.05-2.23-6.1-3.12,1,1.81,4.19,3.15,4.19,3.15-2.92-.19-5.2-2.66-7.07-2.95a14,14,0,0,0,3.14,2.44,16,16,0,0,0-9.37-1c6.68.32,14.18,2.78,18.22,7.61-4.17.51-7.77-2.31-8-2.5a13.63,13.63,0,0,0,5.36,1.2c-3.74-1.68-8.16-3.19-8.16-3.19,3.26,2.19,5.81,6.59,5.84,6.64h0a5.94,5.94,0,0,0-3-1.11,8.91,8.91,0,0,1,3.93,4.79,5,5,0,0,0-2-1.54c1.78,2.36,1.93,6.86,1.93,6.86a14.14,14.14,0,0,0-3-5.09,6.37,6.37,0,0,1-.36,2.35,28,28,0,0,0-2.4-4.25,8.68,8.68,0,0,1,0,2.93,14.68,14.68,0,0,0-4.39-5.17c.34.62.87,1.84.87,1.84a20.78,20.78,0,0,0-5.14-1.41,16.79,16.79,0,0,1,6.23,3.83,10.24,10.24,0,0,0-4.36-1.52s4.19,1.62,6.12,4.38a15.62,15.62,0,0,0-4.74-2.2,16.13,16.13,0,0,1,5.59,4.91,9.46,9.46,0,0,0-4.27-2.43s3.77,2.34,4.93,5.65a14.5,14.5,0,0,0-4-3.25c1.48,1.6,1.8,3.52,4.38,5.74,0,0-3.66-.33-4.43-2.86a6.34,6.34,0,0,0,.55,2.12c-.91-.13-2.51-1.08-2.42-3.6a17.89,17.89,0,0,0-.06,2.67c-1.19-.75-1.95-2.08-1.66-5.05a16.55,16.55,0,0,0-.27,4.11s-2.1-.76-1.77-4.13a8.33,8.33,0,0,0-.1,3s-2.18-1-2-6.94a21.4,21.4,0,0,0-.37,2.43c3.6,18.56,2.3,43.41-10,61.09a39.82,39.82,0,0,1-4,4.4c.83.36,1.76.73,2.74,1.08,2.32.75,5.68,1.66,9.5,2.73-5.75-.46-11.68-.7-17.75-.7-6.47,0-12.79.27-18.89.79Zm39.63-75.24a1.7,1.7,0,0,1-.44.7c.6,2.42.44,5.38,1,6.33.09-3.15.87-5.18-.55-7Zm-1.3-11Zm.15,0Zm.15,0h-1.23a17.75,17.75,0,0,0-6.81,1.73c1.68-2.4,5.38-2.16,7.12-1.89h.2l.09,0h.63Zm-5.06,3.27c-.28,1.46-.87,3.9-1.82,4.64a7.53,7.53,0,0,1,1.82-4.64Zm-1.82,4.64.13,0-.13.05v-.09Zm-32.78,21.08c1.3,1,4,2.27,4.47,3.42-2.37-1.64-3.06-1.15-4.47-3.42Zm39-14.35c-.18-.82-.37-1.62-.57-2.41a.3.3,0,1,1,.55-.15.82.82,0,0,0,.22,0,14.88,14.88,0,0,1-.2,2.58Zm-29,28.14c.19,1.06-.79,5.79-.07,6.47.47-2.49,1.5-4.53.07-6.47Zm-8.43-7.42a18.28,18.28,0,0,0-8.14-3.38,12.36,12.36,0,0,1,3.33,1.84,19.31,19.31,0,0,0-8.43-1.78s4.12.69,5.34,2c0,0-4.46-1.66-8.24-1.06,0,0,3.34.47,4.89,1.59,0,0-4.8-1.42-8.29-.43a14.47,14.47,0,0,1,5.79,1.37s-4.65-1-8.3.19a13.13,13.13,0,0,1,5.55.81,14,14,0,0,0-8.19,1.23,18.62,18.62,0,0,1,5.64-.22c-2.36.37-3.87,1.63-7.61,1.86,0,0,3.5,1.79,5.81.33a6.66,6.66,0,0,1-1.86,1.28,3.81,3.81,0,0,0,4.49-1.35,17,17,0,0,1-1.66,2c1.55.09,3.08-.47,4.72-2.87a14.84,14.84,0,0,1-2.39,3.24,4.41,4.41,0,0,0,4.36-2.17,6.69,6.69,0,0,1-2,2.38s2.62.43,6.23-4.09a15.57,15.57,0,0,1-2.7,3.83c2.39.23,5.58-4.15,8.09-4.43h0a17.88,17.88,0,0,0-6,5.47,4,4,0,0,1,1.38-.57,13.18,13.18,0,0,0-2.61,3.29,5,5,0,0,1,2.46-1.15,9.59,9.59,0,0,0-3.79,4.24,10.53,10.53,0,0,1,3.52-2.31,11.58,11.58,0,0,0-3.06,3.23,7.79,7.79,0,0,1-3.48,2.76,7.23,7.23,0,0,0,4.64-1.63,14.72,14.72,0,0,1-1.47,2.41,10,10,0,0,0,3.55-3.6,10.92,10.92,0,0,1-.45,2.95c2.4-3.1,2.3-4.9,2.3-4.9a10.26,10.26,0,0,1-.46,5.18,8,8,0,0,0,2-5.35,6.21,6.21,0,0,1,1-3.71,18.22,18.22,0,0,0,.05,4.25,15.31,15.31,0,0,1-.22,3.48c1.2-2,1.23-3.59,1.36-6.5s1-3.71,1-3.71c-.6,1.29,0,3,.19,5a9.41,9.41,0,0,1-.16,3.36c1-1.25,1.4-3,1.18-6.08s1-4.46,1-4.46c-.74,1.45,0,3.68.16,5.7A49.33,49.33,0,0,0,287.84,456a33.59,33.59,0,0,0,4.26-2.24,36.91,36.91,0,0,1-3.27-3.67,31,31,0,0,0-3.37,1.39,21.66,21.66,0,0,1,3-1.92,38.75,38.75,0,0,1-2.65-4,30.91,30.91,0,0,0-3,1,22.27,22.27,0,0,1,2.72-1.51,37.34,37.34,0,0,1-1.7-3.41c-.72.21-1.52.49-2.42.83a20.57,20.57,0,0,1,2.23-1.27c-.42-1-.81-2-1.15-3-.64.18-1.35.39-2.13.66a21.1,21.1,0,0,1,2-1.06c-.26-.77-.49-1.56-.7-2.35-.62.17-1.29.38-2,.63a18.84,18.84,0,0,1,1.94-1c-.21-.81-.39-1.63-.55-2.46-.61.14-1.29.31-2,.52a21.33,21.33,0,0,1,2-.92c-.15-.84-.28-1.68-.38-2.53-.64.14-1.35.31-2.13.54a21.47,21.47,0,0,1,2.08-1c-.09-.81-.15-1.63-.19-2.45q-.84.19-1.83.48a17.53,17.53,0,0,1,1.81-.86c-.32-3.61,1.09-7.16,1.14-2.13a48.21,48.21,0,0,0,2.16,12.05s-1.62-7.89-.88-13a7.26,7.26,0,0,0,1.44,4.63,11.57,11.57,0,0,1,1-3.75c-.88,4.64,1,5.73,1,5.73a5.65,5.65,0,0,1,.46-2.38c-.72,2.63,1.16,3.49,1.16,3.49a11.17,11.17,0,0,1,.75-3.23c-.64,2.32-.08,3.46.94,4.19a12.27,12.27,0,0,1,.38-2.1,2.56,2.56,0,0,0,1.84,3.14,4.46,4.46,0,0,1-.27-1.74c.43,2.09,3.81,2.78,3.81,2.78-2.14-2.06-2.21-3.62-3.41-5.06a12.84,12.84,0,0,1,3.33,3c-.68-2.76-3.93-5.06-3.93-5.06a9.21,9.21,0,0,1,3.71,2.44,14.48,14.48,0,0,0-4.65-4.56,15.64,15.64,0,0,1,4.18,2.31c-1.48-2.42-5.21-4.19-5.21-4.19a10.54,10.54,0,0,1,3.91,1.71,16.4,16.4,0,0,0-5.39-3.77,22.53,22.53,0,0,1,4.66,1.73s-.35-1-.59-1.56a12.41,12.41,0,0,1,3.49,4.61,5.91,5.91,0,0,0,.38-2.31,20.65,20.65,0,0,1,1.75,3.65,4.55,4.55,0,0,0,.61-1.82,10.81,10.81,0,0,1,2.21,4.39s.41-3.58-1-5.66a4.63,4.63,0,0,1,1.71,1.46,7.12,7.12,0,0,0-3.1-4.26,6.23,6.23,0,0,1,2.66,1.24h0a19.32,19.32,0,0,0-4.68-6s4,1.72,7.27,3.5a14.9,14.9,0,0,1-4.88-1.59,12.27,12.27,0,0,0,7.19,2.93c-3.2-4.31-9.94-7.15-16.17-8.2a17.62,17.62,0,0,1,8.67,1.92,12.56,12.56,0,0,1-2.65-2.31c1.72.46,3.55,2.68,6.28,3.18,0,0-2.84-1.44-3.55-3,1.81.94,3.52,2.65,5.34,3.2a8.56,8.56,0,0,1-2.39-2.27c1.91,1.3,3.26,1.63,4.82,2.78,0,0-2.6-3-3.37-3.16a5,5,0,0,1,1.53,0,7.15,7.15,0,0,0-2.69-1.44,2.33,2.33,0,0,1,.8-.28,8.83,8.83,0,0,0-3.15-.76,30.47,30.47,0,0,0,4.64-1.32c-3.41-.07-4.38-.54-6.32-.54,2.53-.51,5.6.1,8.79-1.47,0,0-1.52-.27-3-.37.92-.26,2.87-.21,4.67-1.49,0,0-1.8-.08-3-.05a5.8,5.8,0,0,0,3.79-2.59,5.81,5.81,0,0,1-2.36,1,4.7,4.7,0,0,0,2-3.27c-2.15,1.67-4.17,1.63-7.37,3.76a11,11,0,0,1,3.73-2.65,13.47,13.47,0,0,0-6.25,2.46s.15-.72,2-2a19.16,19.16,0,0,0-4.78,1.6,3.48,3.48,0,0,1,1-1.11,15.5,15.5,0,0,0-3.68,1.48,10.26,10.26,0,0,0,2.11-3,11,11,0,0,1-3.59,2.58,12,12,0,0,0,4-5,9.35,9.35,0,0,1-3.23,2.11,9.47,9.47,0,0,0,3.9-5.1,6.87,6.87,0,0,1-2.92,2c2.39-1.43,3.42-4.69,3.42-4.69a9.06,9.06,0,0,1-2.53,1.77,7.06,7.06,0,0,0,2.12-4.42,12,12,0,0,0-5.38,5.31c-.22-.74.63-2.94.63-2.94C288.92,395.23,289,399,289,399c-.72-1.5,0-4,0-4a7.5,7.5,0,0,0-1.07,6c-.23-.21-1.21-1.69-.57-4.72-1.74,2.77-.44,5.84-.75,6.62-1.15-1.51-.7-4.22-.7-4.22-1.19,2.39-.17,3.79-.58,5.71a11,11,0,0,1-.63-2.92c-.73,1.57.1,4.92-1.81,7.81-.75-2.1,2.36-5.54-.69-8.71a7.77,7.77,0,0,1-.33,1.91,5.49,5.49,0,0,0-1.45-4.07,3.11,3.11,0,0,1-.07,1.66s-.19-2.29-3.08-4.54a3.22,3.22,0,0,1,.32,1.52s-1-2.09-4.4-3.81a3.55,3.55,0,0,1,.71,1.3,16.64,16.64,0,0,0-6.27-2.71,22.15,22.15,0,0,1,5,3.67,11.73,11.73,0,0,1-4.58-2.11c1.24,2.07,4.47,3,6.44,4.92-2-1.08-3.73-1.2-5.57-2.65.93,2.12,3.91,2.57,6.1,4.27a27.81,27.81,0,0,1-5.7-2c1.69,2.25,6.05,3.08,9,5.24-2.23-1-5.21-1.2-8.29-3.28,2.61,3.48,7.89,3.11,10.31,7-1.7-1.83-6-2.73-7.7-4.05,2.34,3.1,7,3.77,8.42,6.25-1.2-1-5.78-2.87-6.94-4.09a7.93,7.93,0,0,1,.48,1.7s-1.41-2.13-5.42-4a6,6,0,0,1,1.43,1.74,14.54,14.54,0,0,0-6.14-2.93,11.8,11.8,0,0,1,1.62,1.15,18.85,18.85,0,0,0-5.87-1.31,15.66,15.66,0,0,1,2,.77,12.41,12.41,0,0,0-9.43,2.53,19.87,19.87,0,0,1,8.11-1.56,51,51,0,0,1-6.06,1.67c4.34.21,6.48-1.33,10.65-.65-3.15.17-5.3,1.26-8.07,1.38,3.88.73,8.16-1.71,12.1.14-4.15-.44-6.49.79-10.58.87,5.22,1.16,9.53-1.45,13.95,1.49-4.05-1.49-7.45-.1-10.85-.46,4.52,1.54,7.08-.6,12.86,2.26a19.88,19.88,0,0,0-6.75-.94c3.12.61,6.83,1.7,9.46,4.47Zm-.2.64h0c-4.69-.79-5.34,1.7-8.41,3.6,2.6-3,3.16-5,8.38-3.58l0,0Zm4.14.86c-.44,1.12-1.23,2.91-2.21,3.39a5.44,5.44,0,0,1,2.21-3.39Zm2.59,4.85c.26,1.34-.6,4.1.1,5,.49-1.52,1.07-3.8-.1-5Zm-4-4.6a3.22,3.22,0,0,1-1.91,1.41,2.76,2.76,0,0,1,1.91-1.41Zm-4,1.62a10.58,10.58,0,0,1-5.43,2.47,7.83,7.83,0,0,1,5.43-2.47Zm-5.93,8.07a5.39,5.39,0,0,0-3,2.66,8.78,8.78,0,0,0,3-2.66Zm3.52-5A6.44,6.44,0,0,0,269,422c2.33-1,3-.69,4.72-2.31ZM272,421.78a6.4,6.4,0,0,0-3.62,2.18s3.35-1.2,3.62-2.18Zm10.05-3c-.46-1.64.47-4.16,1-4.36-.09,1.51.32,3.24-1,4.36Zm2.7-4.9a11,11,0,0,0,3,5c-2.61-.63-3.9-1.93-3-5Zm2.69,15c.39-2.6,1.81-3.67.12-6,.38,2-.5,4.41-.12,6Zm2-2.94c-.06,1.73-.76,2.7-.21,4.15.16-1.39,1.35-2.11.21-4.15Zm1.05,1.92c0,1.23-.44,2.53.37,3.66-.26-.95.61-2-.37-3.66Zm1.24,1.83c0,1.32-.16,1.47,1.38,2.76-.71-.92-.67-1.69-1.38-2.76Zm-5.42-15.85a39.86,39.86,0,0,1,4.31,4.33c-3.15-.84-3.47-3.11-4.31-4.33Zm2.46.41a31.67,31.67,0,0,1,5.59,5.14c-4-2.28-3.21-2.65-5.59-5.14Zm3.06.68a50.41,50.41,0,0,1,6.9,5.48l-.11-.06c-5.33-2.3-3.94-2.67-6.79-5.42Zm-3.11-3.3a6.73,6.73,0,0,0,3.92,0h.68c-1.78-.06-3.35-.53-4.89.15h.21l.08,0Zm8.12-.14a8.67,8.67,0,0,1,3.55.16,6.75,6.75,0,0,1-3.55-.16Zm3,.84a6.13,6.13,0,0,1,3.05.57,4.86,4.86,0,0,1-3.05-.57Zm-32.69,1.14c-3.33.74-3.08,2.95-5.26,5.29,2.27-.8,3.53-4.06,5.26-5.29Zm-2.4,4.92c2.95-1.32,2.89-4.34,7.68-5.25-5.06-.29-4.82,2-7.68,5.25Zm-1.18-4c-2,2.15-2.89,3.87-4.31,4.16,1.16-1.28,1.87-3.39,4.31-4.16Zm-3,1c-1.14,1-2.31,2.75-3.82,2.81,1.19-.63,1.62-2.17,3.82-2.81Zm-2.74.66a4.23,4.23,0,0,1-3.82,1.37c1.45-.27,2.22-1,3.82-1.37Zm30.93-7.88c-1.17.88-2.51,1.39-3,2.64a4.72,4.72,0,0,0,3-2.64Zm8.05,0a26.88,26.88,0,0,0,6.09-.4,12.31,12.31,0,0,0-6.09.4Zm3.79-1.27a20.33,20.33,0,0,0,4.6-.81,9.27,9.27,0,0,0-4.6.81ZM292,410.42a29.44,29.44,0,0,0,7.55-.6c-2.94-.22-4.64-.37-7.55.6Zm-10-3.18a6.56,6.56,0,0,0,.68-5,10.29,10.29,0,0,0-.68,5Zm-1.11-2.68s.88-3.2.08-4.5c0,0-.76,3-.08,4.5Zm-1.49-2.48a5.75,5.75,0,0,0-1.18-4.93s.37,3.66,1.18,4.93Zm-2.08-2.71A7.17,7.17,0,0,0,275,395s.71,3,2.26,4.36Zm14.52,4.69c-1.36,1.1-3.7,1.72-5.29,4,0,0,3.62-1.27,5.29-4Zm-2.27,4.86c2.87-1.2,2.56-2,4.72-4a11.63,11.63,0,0,0-4.72,4Zm11.29-3.22s.6-1.29,4.13-2.49a9.94,9.94,0,0,1-4.13,2.49Zm-7.2,2a10.94,10.94,0,0,1,4.53-4.31c-1.84,1.87-1.7,2.75-4.53,4.31Zm3.39-1.19a9.35,9.35,0,0,1,4.14-3.24,9.38,9.38,0,0,1-4.14,3.24ZM294.73,392a11.85,11.85,0,0,0-3.2,3.82s2.11-.31,3.2-3.82Zm-1.9,9.13c-1.05.92-2.69,1.21-4.37,3.05,0,0,2.24-.06,4.37-3.05Zm1.15-3.15c-.57.5-2.77,1.07-4.23,2.89a6.55,6.55,0,0,0,4.23-2.89Zm.67-2.86c-.65.68-2.26,1.16-3.57,2.94,0,0,2-.19,3.57-2.94Zm15.08-8.63.26,0a1.21,1.21,0,0,0-.66,1.07,1.19,1.19,0,0,0,.95,1.17,1.14,1.14,0,0,1-.55.13,1.2,1.2,0,1,1,0-2.39Zm2.8,4.49a1.19,1.19,0,1,1-1.74-1.44,1.27,1.27,0,0,0-.05.34,1.23,1.23,0,0,0,1.24,1.23,1.12,1.12,0,0,0,.55-.13Zm2.47-5.07a1.73,1.73,0,0,1-.57,3.36,1.78,1.78,0,0,1-.91-.26h.09a1.86,1.86,0,0,0,1.86-1.86,1.89,1.89,0,0,0-.47-1.24Zm-5.9-4.18a3.69,3.69,0,0,1-1.76,2.05,3.23,3.23,0,0,1,1.76-2.05Zm-3.91,2.64a11,11,0,0,1-5.28,3.92,8.18,8.18,0,0,1,5.28-3.92Zm-4.91,10.94s-1.73.76-2.74,3.76a10.1,10.1,0,0,0,2.74-3.76Zm2.88-6.8a6.52,6.52,0,0,0-4.57,3.61c2.27-1.65,3-1.32,4.57-3.61Zm-1.41,2.89a6.78,6.78,0,0,0-3.44,3.27s3.32-2,3.44-3.27ZM312,385c-.74-2-.39-4.17.1-4.49a6.34,6.34,0,0,0,.73,2.47,2.08,2.08,0,0,1-.83,2Zm1.82-5.43a13.62,13.62,0,0,0,4.28,5.44c-3.42-1.48-4.76-1.53-4.28-5.44ZM319,397.73c0-3.29,1.3-4.83-.84-7.5.71,2.38.18,5.54.84,7.5Zm1.59-4c.21,2.14-.36,3.45.44,5.17-.05-1.74,1.08-2.83-.44-5.17ZM322,396c.2,1.52-.06,3.2,1,4.47-.41-1.14.32-2.62-1-4.47Zm1.58,2.07c.26,1.63.08,1.85,1.89,3.2-.89-1-1-2-1.89-3.2Zm-8.21-18.78a43.59,43.59,0,0,1,5.21,4.68c-3.43-.54-4.13-3.31-5.21-4.68Zm2.65.12a35.31,35.31,0,0,1,6.67,5.49c-4.56-2.19-3.79-2.78-6.67-5.49Zm3.31.36a54.42,54.42,0,0,1,8.09,5.7l-.13,0c-5.94-2-4.55-2.69-8-5.65Zm-3.79-3.6a6.05,6.05,0,0,0,4.1-.66h0l.05,0h.07l0,0h.28l.07,0h0l.09-.07h0c-1.87.22-3.59-.12-5.09,1h.32Zm8.47-1.45a7.74,7.74,0,0,1,3.73-.36,6,6,0,0,1-3.73.36Zm3.24.57a5.52,5.52,0,0,1,3.28.24,4.4,4.4,0,0,1-3.28-.24Zm-38.11,8.61c-1.76,3-1.88,4.9-3.32,5.49,1-1.77.89-4.15,3.32-5.49Zm-2.43,1.34c-1,1.45-2,3.77-3.54,4.08,1.14-1,1.34-2.93,3.54-4.08ZM286,386.48c-1.16,1.55-1.72,2.16-3.78,2.3,1.48-.57,2.17-1.55,3.78-2.3Zm31.08-14.63c-1.08,1.29-3.4,2.63-3.71,4.26a7.1,7.1,0,0,0,3.71-4.26Zm8.41-1.31s4.49-.47,6.31-1.46a11.18,11.18,0,0,0-6.31,1.46Zm3.75-2.17a18.58,18.58,0,0,0,4.68-1.73,8.54,8.54,0,0,0-4.68,1.73Zm-8.45,5.79a27,27,0,0,0,7.8-1.93c-3.12.18-4.92.27-7.8,1.93Zm-11.19-2.58a9.57,9.57,0,0,0,0-6.39s-1.26,4.78,0,6.39Zm-1.51-2.43s1-3.72-.65-6.07c0,0-.68,5,.65,6.07Zm-1.69-2.88a9.57,9.57,0,0,0-2-6.55s.27,5.64,2,6.55Zm-2.23-2.64a9.64,9.64,0,0,0-3.6-5.9s1.66,5.25,3.6,5.9Zm15.4,2.67c-1.25,1.58-4.18,3.08-5.48,6.13,0,0,4.17-2.5,5.48-6.13Zm-1.6,6.38c2.81-1.94,2.36-2.85,4.3-5.64a13.51,13.51,0,0,0-4.3,5.64Zm11.29-5.77s.43-1.69,3.92-3.73c0,0-1.82,2.9-3.92,3.73Zm-7.2,3.66s1.23-4,4-6c-1.63,2.6-1.35,3.67-4,6Zm3.35-2a10.76,10.76,0,0,1,3.82-4.66s-1.49,3.45-3.82,4.66Zm-4.68-17.73a14.68,14.68,0,0,0-2.74,5.24s2.15-.73,2.74-5.24Zm-.53,11.6c-1,1.31-3.5,2.7-5,5.25a9.84,9.84,0,0,0,5-5.25Zm.69-4.08c-.51.71-3.41,2.46-4.65,4.95a10.07,10.07,0,0,0,4.65-4.95Zm.25-3.65c-.57,1-2.85,2.42-3.94,4.83a8.16,8.16,0,0,0,3.94-4.83Z" transform="translate(-232 -348.89)"/><path class="c" d="M245.82,492.88l4.6-.73-2.61-16.44-4.6.73,1,6.44-6.57,1-1-6.43-4.63.73,2.61,16.44,4.64-.73-1.12-7.05,6.57-1,1.12,7Zm17.37-19c-6.06.57-8.61,4.43-8.13,9.55s3.37,8,9.35,7.42,8.59-4.31,8.12-9.4-3.39-8.13-9.34-7.57Zm-.13,2.9c3.06-.29,4.14,2.08,4.45,5.39.32,3.47-.54,5.55-3,5.78-3.09.29-4.16-2-4.47-5.26-.32-3.5.53-5.68,3-5.91Zm15.69,12.95,11.45-.4-.1-3-6.76.23-.49-13.66-4.68.17.58,16.63Zm15.61-.39,4.69,0,.12-16.64-4.7,0-.11,16.64Zm10.81,0c2.78.14,4.08.25,6.24.36,6.45.32,9.5-2.68,9.75-7.77s-2.42-8.63-8.84-9c-2.1-.1-5.79-.24-6.33-.26l-.82,16.62ZM312,475.8c3,.15,4.31,2.13,4.13,5.91-.17,3.29-1.35,5.28-4.67,5.12-.68,0-1-.05-1.45-.1l.54-11,1.45.05Zm11.22,14.47,4.64.44,1.85-3.86,6.2.58,1,4.13,4.73.44-5.47-17.23-4.16-.39-8.83,15.89ZM331,484c.94-1.82,2-4.06,2.55-5.27.32,1.24,1,3.67,1.53,5.65L331,484Zm17,9.21,4.59.81,1.08-6.07,7.88-9.24-4.82-.86-4.56,5.66L350,476.62l-4.88-.87,4.07,11.14-1.12,6.29Z" transform="translate(-232 -348.89)"/></svg>