<svg id="Слой_1" data-name="Слой 1" xmlns="http://www.w3.org/2000/svg" width="112.76923" height="61.54405" viewBox="0 0 112.76923 61.54405">
  <defs>
    <style>
      .cls-1 {
        fill: #f3f2f2;
      }

      .cls-2 {
        fill: #fe0000;
      }
    </style>
  </defs>
  <title>_</title>
  <g>
    <rect class="cls-1" y="1.92308" width="4.07692" height="58.69231"/>
    <g>
      <polygon class="cls-1" points="40.487 1.923 40.487 8.536 53.128 12.363 53.128 1.923 40.487 1.923"/>
      <polygon class="cls-1" points="40.487 39.644 12.462 1.923 8.385 1.923 8.385 60.615 12.462 60.615 12.462 23.399 40.487 60.615 40.487 60.615 53.128 60.615 53.128 20.4 40.487 16.573 40.487 39.644"/>
    </g>
    <path class="cls-2" d="M39.53846,4.53846V9.15385l72.15385,29.92307,1.07692-4.84615L79.07692,20.30769s-2.30769-8.76923,7.15385-8.38461a23.57082,23.57082,0,0,1,15.15385,6.38461l7.07692-10.38461S100.15385,0,85.30769,0,65.23077,11.15385,64.69231,14.53846C58.15385,12,39.53846,4.53846,39.53846,4.53846Z"/>
    <path class="cls-2" d="M39.53846,13.51282,110.05128,42.4359a19.63166,19.63166,0,0,1-.71062,3.44984q-.05739.198-.12081.40386c-1.67371,5.4256-6.5939,14.7166-20.707,15.22322-20,.718-26.87179-11.17949-26.87179-11.17949l8.10256-8.71795s9.641,8.10257,17.33333,8,8.92739-4.82425,7.49149-8.61912C39.64533,18.73985,39.53846,18.4359,39.53846,18.4359Z"/>
  </g>
</svg>
