<?xml version="1.0" encoding="UTF-8" ?>
<!DOCTYPE svg PUBLIC "-//W3C//DTD SVG 1.1//EN" "http://www.w3.org/Graphics/SVG/1.1/DTD/svg11.dtd">
<svg width="128pt" height="112pt" viewBox="0 0 128 112" version="1.1" xmlns="http://www.w3.org/2000/svg">
<g id="#5a5a5aff">
<path fill="#5a5a5a" opacity="1.00" d=" M 13.22 7.16 C 14.74 6.58 16.28 5.97 17.95 6.08 C 46.85 6.03 75.74 6.45 104.64 6.50 C 110.38 6.43 116.23 8.15 120.37 12.26 C 122.42 17.50 121.83 23.18 121.55 28.66 C 120.93 31.68 118.33 34.81 115.02 34.72 C 104.66 34.94 94.30 34.47 83.94 34.64 C 80.76 34.70 77.81 36.60 76.27 39.34 C 63.54 59.35 52.06 80.18 38.24 99.47 C 36.51 101.83 34.28 104.48 31.12 104.62 C 26.29 105.10 21.41 104.96 16.57 104.66 C 12.89 104.52 10.43 101.40 8.12 98.92 C 6.27 97.20 5.53 94.15 6.95 91.94 C 15.96 77.58 24.93 63.19 33.77 48.71 C 35.83 45.14 38.66 41.90 39.56 37.77 C 38.76 36.72 37.98 35.67 37.21 34.59 C 29.33 32.34 20.93 34.94 13.05 32.59 C 10.03 31.44 7.84 28.27 8.25 24.99 C 8.51 20.00 7.91 14.81 10.02 10.13 C 10.32 8.49 11.95 7.89 13.22 7.16 Z" />
</g>
<g id="#838383ff">
<path fill="#838383" opacity="1.00" d=" M 81.59 37.50 C 83.46 37.49 85.42 37.05 87.22 37.70 C 89.21 38.73 90.39 40.72 91.50 42.57 C 100.88 58.84 110.02 75.23 119.60 91.37 C 121.38 93.84 120.65 96.95 120.72 99.77 C 114.73 106.11 105.02 105.99 96.94 105.53 C 92.26 105.19 89.89 100.77 87.80 97.18 C 86.32 94.39 82.89 93.70 80.00 93.75 C 70.31 93.72 60.61 93.75 50.93 93.61 C 49.14 93.88 48.14 92.62 47.54 91.14 C 51.35 85.31 54.77 79.24 58.64 73.45 C 61.51 68.65 68.46 73.55 71.71 69.16 C 70.40 65.40 65.40 61.59 68.32 57.46 C 72.85 50.88 76.17 43.41 81.59 37.50 Z" />
</g>
</svg>
