<svg id="Слой_1" data-name="Слой 1" xmlns="http://www.w3.org/2000/svg" width="58" height="58" viewBox="0 0 58 58">
  <defs>
    <style>
      .cls-1, .cls-2 {
        fill: none;
        stroke-miterlimit: 10;
      }

      .cls-1 {
        stroke: #444f5a;
      }

      .cls-2 {
        stroke: #da203e;
        stroke-linecap: round;
      }

      .cls-3 {
        fill: #444f5a;
      }

      .cls-4 {
        fill: #da203e;
      }
    </style>
  </defs>
  <title>_</title>
  <g>
    <polyline class="cls-1" points="24.891 0.742 57.379 0.742 57.379 57.5 31.858 57.5"/>
    <line class="cls-1" x1="30.91403" y1="8.44963" x2="40.71389" y2="8.44963"/>
    <polyline class="cls-2" points="44.261 7.914 46.357 10.01 51.458 5.655"/>
    <line class="cls-1" x1="30.91403" y1="18.69477" x2="40.71389" y2="18.69477"/>
    <polyline class="cls-2" points="44.261 18.159 46.357 20.255 51.458 15.9"/>
    <line class="cls-1" x1="30.91403" y1="28.93992" x2="40.71389" y2="28.93992"/>
    <polyline class="cls-2" points="44.261 28.404 46.357 30.5 51.458 26.145"/>
    <line class="cls-1" x1="30.91403" y1="39.18506" x2="40.71389" y2="39.18506"/>
    <polyline class="cls-2" points="44.261 38.649 46.357 40.745 51.458 36.391"/>
    <line class="cls-1" x1="30.91403" y1="49.43021" x2="40.71389" y2="49.43021"/>
    <polyline class="cls-2" points="44.261 48.894 46.357 50.99 51.458 46.636"/>
    <circle class="cls-2" cx="13.58562" cy="5.65514" r="5.15514"/>
    <path class="cls-2" d="M26.34585,21.6948a6.73711,6.73711,0,0,0-6.7374-6.73722H7.35863A6.73711,6.73711,0,0,0,.62123,21.6948V38.88266H4.47479V57.4998h18.0175V38.88266h3.85356Z"/>
    <path class="cls-3" d="M22.58546,22.92444a4.76746,4.76746,0,0,0-4.76767-4.76754H9.1493a4.76747,4.76747,0,0,0-4.76768,4.76754V35.0873h2.727L7.21065,53.774H19.96059L19.85852,35.0873h2.72694Z"/>
    <line class="cls-2" x1="13.48354" y1="57.5" x2="13.48354" y2="43.36165"/>
    <circle class="cls-4" cx="7.51175" cy="23.85762" r="0.76561"/>
    <circle class="cls-4" cx="13.40698" cy="23.85762" r="0.76561"/>
    <circle class="cls-4" cx="19.30221" cy="23.85762" r="0.76561"/>
  </g>
</svg>
