<svg id="Слой_1" data-name="Слой 1" xmlns="http://www.w3.org/2000/svg" width="87.50006" height="87.64111" viewBox="0 0 87.50006 87.64111">
  <defs>
    <style>
      .cls-1 {
        fill: #34383e;
      }

      .cls-2 {
        fill: #3a414a;
      }

      .cls-3 {
        fill: #898d99;
      }

      .cls-4 {
        fill: #ef2140;
      }

      .cls-5 {
        fill: #161a20;
      }

      .cls-6 {
        fill: #9fa4b0;
      }

      .cls-7 {
        fill: #99ee48;
      }
    </style>
  </defs>
  <title>_</title>
  <g>
    <polygon class="cls-1" points="1.859 81.898 1.859 66.949 6.359 66.949 6.359 61.205 1.859 61.205 1.859 40.615 6.359 40.615 6.359 34.872 1.859 34.872 1.859 14.282 6.359 14.282 6.359 8.539 0 8.539 0 12.885 0 14.282 0 34.872 0 40.615 0 61.205 0 66.949 0 81.898 0 83.615 0 87.641 20.59 87.641 20.59 81.898 1.859 81.898"/>
    <polygon class="cls-1" points="85.641 81.898 85.641 66.949 81.141 66.949 81.141 61.205 85.641 61.205 85.641 40.615 81.141 40.615 81.141 34.872 85.641 34.872 85.641 14.282 81.141 14.282 81.141 8.539 87.5 8.539 87.5 12.885 87.5 14.282 87.5 34.872 87.5 40.615 87.5 61.205 87.5 66.949 87.5 81.898 87.5 83.615 87.5 87.641 66.91 87.641 66.91 81.898 85.641 81.898"/>
    <path class="cls-2" d="M78.82045,22.76953H8.71791a3.05413,3.05413,0,0,1-3.05078-3.05127V3.05127A3.05413,3.05413,0,0,1,8.71791,0H78.82045a3.055,3.055,0,0,1,3.05176,3.05127v16.667A3.055,3.055,0,0,1,78.82045,22.76953ZM8.71791,2A1.05246,1.05246,0,0,0,7.66713,3.05127v16.667a1.05246,1.05246,0,0,0,1.05078,1.05127H78.82045a1.05267,1.05267,0,0,0,1.05176-1.05127V3.05127A1.05267,1.05267,0,0,0,78.82045,2Z"/>
    <path class="cls-2" d="M77.61537,19.91016H10.15346a1.29617,1.29617,0,0,1-1.29492-1.29444V4.20508a1.29658,1.29658,0,0,1,1.29492-1.29492H77.61537A1.29659,1.29659,0,0,1,78.9103,4.20508V18.61572A1.29618,1.29618,0,0,1,77.61537,19.91016Zm-67.46191-16a.295.295,0,0,0-.29492.29492V18.61572a.29456.29456,0,0,0,.29492.29444H77.61537a.29456.29456,0,0,0,.29493-.29444V4.20508a.295.295,0,0,0-.29493-.29492Z"/>
    <rect class="cls-3" x="11.84618" y="6.0514" width="10.02564" height="10.84615"/>
    <circle class="cls-4" cx="25.91669" cy="7.98089" r="2"/>
    <circle class="cls-4" cx="30.91669" cy="7.98089" r="2"/>
    <g>
      <rect class="cls-5" x="53.00002" y="5.98089" width="2.8718" height="11.14744" rx="1.4359"/>
      <path class="cls-6" d="M54.43591,13.36548A1.436,1.436,0,0,0,53,14.80139v.89111a1.43592,1.43592,0,0,0,2.87183,0v-.89111A1.436,1.436,0,0,0,54.43591,13.36548Z"/>
      <rect class="cls-5" x="58.02567" y="5.98089" width="2.87179" height="11.14744" rx="1.4359"/>
      <path class="cls-6" d="M59.46155,13.36548a1.436,1.436,0,0,0-1.43591,1.43591v.89111a1.43592,1.43592,0,0,0,2.87183,0v-.89111A1.436,1.436,0,0,0,59.46155,13.36548Z"/>
      <rect class="cls-5" x="63.05131" y="5.98089" width="2.87179" height="11.14744" rx="1.4359"/>
      <path class="cls-6" d="M64.4872,13.36548a1.436,1.436,0,0,0-1.43592,1.43591v.89111a1.43592,1.43592,0,0,0,2.87183,0v-.89111A1.436,1.436,0,0,0,64.4872,13.36548Z"/>
      <rect class="cls-5" x="68.07695" y="5.98089" width="2.87179" height="11.14744" rx="1.4359"/>
      <path class="cls-6" d="M69.51284,13.36548a1.436,1.436,0,0,0-1.43592,1.43591v.89111a1.43592,1.43592,0,0,0,2.87183,0v-.89111A1.436,1.436,0,0,0,69.51284,13.36548Z"/>
      <rect class="cls-5" x="73.10259" y="5.98089" width="2.87179" height="11.14744" rx="1.4359"/>
      <path class="cls-6" d="M74.53848,13.36548a1.436,1.436,0,0,0-1.43592,1.43591v.89111a1.43592,1.43592,0,0,0,2.87183,0v-.89111A1.436,1.436,0,0,0,74.53848,13.36548Z"/>
    </g>
    <path class="cls-2" d="M78.82045,49.12842H8.71791a3.05413,3.05413,0,0,1-3.05078-3.05127v-16.667a3.05413,3.05413,0,0,1,3.05078-3.05127H78.82045a3.055,3.055,0,0,1,3.05176,3.05127v16.667A3.055,3.055,0,0,1,78.82045,49.12842ZM8.71791,28.35889a1.05246,1.05246,0,0,0-1.05078,1.05127v16.667a1.05246,1.05246,0,0,0,1.05078,1.05127H78.82045a1.05267,1.05267,0,0,0,1.05176-1.05127v-16.667a1.05267,1.05267,0,0,0-1.05176-1.05127Z"/>
    <path class="cls-2" d="M77.61537,46.26953H10.15346a1.29658,1.29658,0,0,1-1.29492-1.29492V30.56445a1.29659,1.29659,0,0,1,1.29492-1.29492H77.61537a1.2966,1.2966,0,0,1,1.29493,1.29492V44.97461A1.29659,1.29659,0,0,1,77.61537,46.26953Zm-67.46191-16a.295.295,0,0,0-.29492.29492V44.97461a.295.295,0,0,0,.29492.29492H77.61537a.295.295,0,0,0,.29493-.29492V30.56445a.295.295,0,0,0-.29493-.29492Z"/>
    <rect class="cls-4" x="11.84618" y="32.41038" width="10.02564" height="10.84615"/>
    <circle class="cls-7" cx="25.91669" cy="34.33987" r="2"/>
    <circle class="cls-4" cx="30.91669" cy="34.33987" r="2"/>
    <rect class="cls-5" x="53.00002" y="32.33987" width="2.8718" height="11.14744" rx="1.4359"/>
    <rect class="cls-5" x="58.02567" y="32.33987" width="2.87179" height="11.14744" rx="1.4359"/>
    <rect class="cls-5" x="63.05131" y="32.33987" width="2.87179" height="11.14744" rx="1.4359"/>
    <rect class="cls-5" x="68.07695" y="32.33987" width="2.87179" height="11.14744" rx="1.4359"/>
    <rect class="cls-5" x="73.10259" y="32.33987" width="2.87179" height="11.14744" rx="1.4359"/>
    <path class="cls-7" d="M54.43591,36.98083A1.43588,1.43588,0,0,0,53,38.41675v3.63464a1.43592,1.43592,0,0,0,2.87183,0V38.41675A1.43589,1.43589,0,0,0,54.43591,36.98083Z"/>
    <path class="cls-7" d="M59.46155,34.0321a1.43593,1.43593,0,0,0-1.43585,1.436v6.58325a1.43588,1.43588,0,1,0,2.87176,0V35.46814A1.436,1.436,0,0,0,59.46155,34.0321Z"/>
    <path class="cls-7" d="M64.48718,35.827a1.43582,1.43582,0,0,0-1.43585,1.43591v4.78845a1.43589,1.43589,0,1,0,2.87177,0V37.26294A1.43588,1.43588,0,0,0,64.48718,35.827Z"/>
    <path class="cls-7" d="M69.51282,36.98083A1.43587,1.43587,0,0,0,68.077,38.41675v3.63464a1.43588,1.43588,0,1,0,2.87176,0V38.41675A1.43588,1.43588,0,0,0,69.51282,36.98083Z"/>
    <path class="cls-7" d="M74.53851,35.827a1.43587,1.43587,0,0,0-1.43591,1.43591v4.78845a1.43589,1.43589,0,1,0,2.87177,0V37.26294A1.43587,1.43587,0,0,0,74.53851,35.827Z"/>
    <path class="cls-2" d="M78.82045,75.4873H8.71791A3.05413,3.05413,0,0,1,5.66713,72.436V55.76953a3.05413,3.05413,0,0,1,3.05078-3.05127H78.82045a3.055,3.055,0,0,1,3.05176,3.05127V72.436A3.055,3.055,0,0,1,78.82045,75.4873ZM8.71791,54.71826a1.05246,1.05246,0,0,0-1.05078,1.05127V72.436A1.05245,1.05245,0,0,0,8.71791,73.4873H78.82045A1.05266,1.05266,0,0,0,79.87221,72.436V55.76953a1.05267,1.05267,0,0,0-1.05176-1.05127Z"/>
    <path class="cls-2" d="M77.61537,72.62842H10.15346A1.29659,1.29659,0,0,1,8.85854,71.3335V56.92334a1.29658,1.29658,0,0,1,1.29492-1.29492H77.61537a1.29659,1.29659,0,0,1,1.29493,1.29492V71.3335A1.2966,1.2966,0,0,1,77.61537,72.62842Zm-67.46191-16a.295.295,0,0,0-.29492.29492V71.3335a.295.295,0,0,0,.29492.29492H77.61537a.295.295,0,0,0,.29493-.29492V56.92334a.295.295,0,0,0-.29493-.29492Z"/>
    <rect class="cls-4" x="11.84618" y="58.76935" width="10.02564" height="10.84615"/>
    <circle class="cls-7" cx="25.91669" cy="60.69884" r="2"/>
    <circle class="cls-4" cx="30.91669" cy="60.69884" r="2"/>
    <g>
      <rect class="cls-5" x="53.00002" y="58.69884" width="2.8718" height="11.14744" rx="1.4359"/>
      <rect class="cls-5" x="58.02567" y="58.69884" width="2.87179" height="11.14744" rx="1.4359"/>
      <rect class="cls-5" x="63.05131" y="58.69884" width="2.87179" height="11.14744" rx="1.4359"/>
      <rect class="cls-5" x="68.07695" y="58.69884" width="2.87179" height="11.14744" rx="1.4359"/>
      <path class="cls-7" d="M54.43591,61.545A1.43585,1.43585,0,0,0,53,62.98083v5.42945a1.43592,1.43592,0,1,0,2.87183,0V62.98083A1.43586,1.43586,0,0,0,54.43591,61.545Z"/>
      <path class="cls-7" d="M59.46155,63.80139A1.43582,1.43582,0,0,0,58.0257,65.2373v3.173a1.43588,1.43588,0,1,0,2.87176,0v-3.173A1.43587,1.43587,0,0,0,59.46155,63.80139Z"/>
      <path class="cls-7" d="M64.48718,61.545a1.4358,1.4358,0,0,0-1.43585,1.43579v5.42945a1.43589,1.43589,0,1,0,2.87177,0V62.98083A1.43586,1.43586,0,0,0,64.48718,61.545Z"/>
      <path class="cls-7" d="M69.51282,60.19885A1.43583,1.43583,0,0,0,68.077,61.63464v6.77564a1.43588,1.43588,0,1,0,2.87176,0V61.63464A1.43585,1.43585,0,0,0,69.51282,60.19885Z"/>
      <rect class="cls-7" x="73.10259" y="58.69884" width="2.87179" height="11.14744" rx="1.4359"/>
    </g>
  </g>
</svg>
