<svg id="Слой_1" data-name="Слой 1" xmlns="http://www.w3.org/2000/svg" width="57.43876" height="68.96167" viewBox="0 0 57.43876 68.96167">
  <defs>
    <style>
      .cls-1 {
        fill: #da203e;
      }

      .cls-2 {
        fill: #3b434d;
      }
    </style>
  </defs>
  <title>_</title>
  <g>
    <path class="cls-1" d="M41.92323,15.37239c.15117,5.14085-2.21782,7.66088-2.21782,7.66088S43.98965,3.88089,25.89555,0c7.71139,7.38374,3.22584,14.1627,3.22584,14.1627s-.95763-5.14085-5.19148-6.40092c0,0,1.65491,6.23716-2.38986,10.50868-3.34485,3.53249-5.39687,19.165,10.21475,19.165C51.10861,37.43544,44.34261,16.53157,41.92323,15.37239ZM31.49014,32.91821a4.00079,4.00079,0,0,1-2.64613-7.1444,15.1199,15.1199,0,0,0,4.23385-5.06526C34.47651,22.1072,38.10545,32.91821,31.49014,32.91821Z"/>
    <polygon class="cls-2" points="51.842 58.04 6.031 58.04 6.031 14.348 0 14.348 0 10.109 10.27 10.109 10.27 53.801 51.842 53.801 51.842 58.04"/>
    <polygon class="cls-2" points="57.439 48.474 8.151 48.474 8.151 44.235 53.2 44.235 53.2 18.719 57.439 18.719 57.439 48.474"/>
    <circle class="cls-2" cx="14.99801" cy="64.12511" r="4.83656"/>
    <circle class="cls-2" cx="42.87613" cy="64.12511" r="4.83656"/>
  </g>
</svg>
