<svg id="Слой_1" data-name="Слой 1" xmlns="http://www.w3.org/2000/svg" width="37" height="37" viewBox="0 0 37 37">
  <defs>
    <style>
      .cls-1 {
        fill: none;
        stroke: #444f5a;
      }

      .cls-1, .cls-2 {
        stroke-miterlimit: 10;
      }

      .cls-2 {
        fill: #da203e;
        stroke: #da203e;
      }
    </style>
  </defs>
  <title>_</title>
  <ellipse class="cls-1" cx="18.5" cy="18.5" rx="18" ry="17.80769"/>
  <circle class="cls-1" cx="18.5" cy="18.5" r="9.96463"/>
  <path class="cls-2" d="M13.85166,9.68914,9.58916,3.04051A17.9713,17.9713,0,0,0,2.96263,9.5393l6.72649,4.31238A10.005,10.005,0,0,1,13.85166,9.68914Z"/>
  <path class="cls-2" d="M23.14792,9.68914l4.26249-6.64863A17.97125,17.97125,0,0,1,34.037,9.5393l-6.72649,4.31238A10.00505,10.00505,0,0,0,23.14792,9.68914Z"/>
  <g>
    <path class="cls-2" d="M13.85166,27.31494l-4.2625,6.64864a17.9713,17.9713,0,0,1-6.62653-6.49879l6.72649-4.31238A10.00491,10.00491,0,0,0,13.85166,27.31494Z"/>
    <path class="cls-2" d="M23.14792,27.31494l4.26249,6.64864A17.97125,17.97125,0,0,0,34.037,27.46479l-6.72649-4.31238A10.005,10.005,0,0,1,23.14792,27.31494Z"/>
  </g>
</svg>
