<svg id="Слой_1" data-name="Слой 1" xmlns="http://www.w3.org/2000/svg" width="186.03906" height="16.90708" viewBox="0 0 186.03906 16.90708">
  <defs>
    <style>
      .cls-1 {
        fill: #da203e;
      }
    </style>
  </defs>
  <title>_</title>
  <g>
    <rect class="cls-1" y="7.49207" width="72.6543" height="1"/>
    <rect class="cls-1" x="113.38477" y="7.49207" width="72.6543" height="1"/>
    <path class="cls-1" d="M98.23466,6.94268a4.99439,4.99439,0,0,1-1.00164,3.4599S99.16792,1.75274,90.996,0c3.48272,3.33474,1.45689,6.39634,1.45689,6.39634s-.43249-2.32177-2.34464-2.89087a5.43221,5.43221,0,0,1-1.07934,4.74607c-1.51064,1.59539-2.4374,8.65554,4.61332,8.65554C102.38308,16.90708,99.32733,7.4662,98.23466,6.94268ZM93.52273,14.867a1.80689,1.80689,0,0,1-1.19508-3.22665A6.82863,6.82863,0,0,0,94.2398,9.35266C94.87147,9.98434,96.51042,14.867,93.52273,14.867Z"/>
  </g>
</svg>
