<svg id="Слой_1" data-name="Слой 1" xmlns="http://www.w3.org/2000/svg" width="37" height="37" viewBox="0 0 37 37">
  <defs>
    <style>
      .cls-1, .cls-2 {
        fill: none;
        stroke-linecap: round;
        stroke-miterlimit: 10;
      }

      .cls-1 {
        stroke: #da203e;
      }

      .cls-2 {
        stroke: #444f5a;
      }
    </style>
  </defs>
  <title>_</title>
  <g>
    <path class="cls-1" d="M17.72213,18.52616,2.2765,9.937a.36958.36958,0,0,1,0-.646L17.72213.70174a1.60051,1.60051,0,0,1,1.55574,0L34.7235,9.291a.36958.36958,0,0,1,0,.646L19.27787,18.52616A1.60056,1.60056,0,0,1,17.72213,18.52616Z"/>
    <path class="cls-2" d="M34.637,15.32925,19.27373,23.87267a1.592,1.592,0,0,1-1.54746,0L2.363,15.32925"/>
    <path class="cls-2" d="M34.637,21.54259,19.27373,30.086a1.59209,1.59209,0,0,1-1.54746,0L2.363,21.54259"/>
    <path class="cls-2" d="M34.637,27.75592,19.27373,36.29934a1.592,1.592,0,0,1-1.54746,0L2.363,27.75592"/>
  </g>
</svg>
