<svg xmlns="http://www.w3.org/2000/svg" viewBox="0 0 400 400"><defs><style>.a{fill:#fefefe;}.b{fill:#d9213f;}.c{fill:#d9223f;}</style></defs><path class="b" d="M254,231.81c8.81,9.89,18.52,19.13,26.16,29.86,6.57,9.22,11.52,19.81,15.86,30.35,5.48,13.33,4.51,26.94-1.41,40.25-4,9-7.76,18-11,27.28-5,14.34-4.9,28.46,1.46,42.74,7,15.68,10.65,32.24,8,49.6-2.62,17-13.69,26.81-31,27.25a78.9,78.9,0,0,1-37.62-8.37c-22-10.95-33.46-32.32-32.21-58,1.42-29.3,14.46-53.28,36.07-72.71,12.29-11.05,22.83-23.33,28.8-39,8.07-21.15,6.21-42.12-1.38-62.95-.73-2-1.23-4.09-1.83-6.13Z" transform="translate(-98 -220.89)"/><path class="c" d="M343.33,310.21c-.58,2-1.1,3.94-1.75,5.89-6,17.94-9.22,36.14-4.63,54.94a53.32,53.32,0,0,0,17.29,28c10.78,9.42,21.63,18.8,32,28.68,13.05,12.42,19.3,28.23,20.11,46,.41,8.92.39,18.06-1.08,26.82-3.66,21.81-17.3,35.23-37.9,42.27-16,5.47-31.63,6.55-46.51-3.17-20.81-13.6-27.87-40.46-14.15-60.56,11.53-16.9,12.38-35.83,6.76-55.15-2.7-9.27-5.7-18.44-8.68-27.63-5.15-15.9-3.56-31.14,4-46S327.08,323,339.25,311.7a23.9,23.9,0,0,1,3.12-2.09Z" transform="translate(-98 -220.89)"/><path class="c" d="M185.23,467c14,16.63,31.32,26,51.42,30.17a200.18,200.18,0,0,0,27.2,3.41c5.2.34,8,2.44,9.36,7.18,1,3.53,1.78,7.1,2.85,10.6,8.29,27.25,28.14,41.1,54.84,46.37a69.12,69.12,0,0,0,40.26-3.62,88.58,88.58,0,0,1,9.63-2.75l.8,1.33a50.48,50.48,0,0,1-3.29,5.26c-16.77,20.79-39.13,30.66-65.25,31.83-33.26,1.49-64.14-6.28-90.85-27-15.89-12.36-25.15-29.38-32.21-47.87-5.93-15.51-9-31.31-6.8-47.91a24.56,24.56,0,0,1,.74-3.38C184.19,469.63,184.58,468.74,185.23,467Z" transform="translate(-98 -220.89)"/><path class="b" d="M253.88,232l-.65-.37.44-.48c.12.23.25.45.37.67Z" transform="translate(-98 -220.89)"/></svg>