<svg id="Слой_1" data-name="Слой 1" xmlns="http://www.w3.org/2000/svg" width="37" height="37" viewBox="0 0 37 37">
  <defs>
    <style>
      .cls-1, .cls-2, .cls-4 {
        fill: none;
        stroke-miterlimit: 10;
      }

      .cls-1, .cls-4 {
        stroke: #444f5a;
      }

      .cls-1 {
        stroke-linecap: round;
      }

      .cls-2 {
        stroke: #ff2045;
      }

      .cls-3 {
        fill: #444f5a;
      }
    </style>
  </defs>
  <title>_</title>
  <g>
    <polyline class="cls-1" points="15.26 24.723 2.352 24.723 2.352 0.578 15.26 0.578 21.521 6.647 21.521 12.207"/>
    <polyline class="cls-1" points="15.26 0.578 15.26 6.672 21.521 6.672"/>
    <polygon class="cls-2" points="15.479 12.355 28.387 12.355 34.648 18.423 34.648 36.5 15.479 36.5 15.479 12.355"/>
    <polyline class="cls-2" points="28.387 12.355 28.387 18.449 34.648 18.449"/>
    <line class="cls-2" x1="9.39098" y1="7.13513" x2="9.39098" y2="16.0063"/>
    <line class="cls-2" x1="9.39098" y1="18.1791" x2="9.39098" y2="19.11764"/>
    <polygon class="cls-3" points="24.376 4.686 28.927 0.135 28.927 9.353 24.376 4.686"/>
    <path class="cls-4" d="M28.92684,4.66663H33.8542a.62676.62676,0,0,1,.62677.62677v6.798"/>
  </g>
</svg>
