<svg id="Слой_1" data-name="Слой 1" xmlns="http://www.w3.org/2000/svg" width="58" height="58" viewBox="0 0 58 58">
  <defs>
    <style>
      .cls-1 {
        fill: #ff2045;
      }

      .cls-2, .cls-3 {
        fill: none;
        stroke-miterlimit: 10;
      }

      .cls-2 {
        stroke: #ff2045;
      }

      .cls-3 {
        stroke: #444f5a;
      }

      .cls-4 {
        fill: #da203e;
      }
    </style>
  </defs>
  <title>_</title>
  <g>
    <path class="cls-1" d="M29.56767,4.63019A12.77925,12.77925,0,1,0,42.34686,17.40944,12.77937,12.77937,0,0,0,29.56767,4.63019Zm4.96287,18.93012a8.0039,8.0039,0,0,1-12.74632-3.69023H18.25961V17.88646h3.14687c-.01162-.16563-.01743-.32253-.01743-.47654s.00581-.31091.01743-.4775H18.25961V14.9488h3.52461a8.005,8.005,0,0,1,12.6146-3.79871l.38742.30994-1.23976,1.5497-.38743-.30994a6.02661,6.02661,0,0,0-9.26045,2.249h6.28211v1.98362h-6.7848c-.01549.16853-.02324.32544-.02324.4775,0,.1511.00775.308.02324.47654h6.7848v1.98362H23.89763a6.02855,6.02855,0,0,0,9.36215,2.16765l.38065-.31769,1.27076,1.52258Z"/>
    <circle class="cls-2" cx="29.56769" cy="17.40946" r="16.71422"/>
    <rect class="cls-3" x="0.5" y="31.97543" width="9.07888" height="21.01876"/>
    <circle class="cls-4" cx="5.03944" cy="36.61024" r="0.76293"/>
    <circle class="cls-4" cx="5.03944" cy="42.48481" r="0.76293"/>
    <circle class="cls-4" cx="5.03944" cy="48.35938" r="0.76293"/>
    <path class="cls-3" d="M9.57888,35.0653h8.16337c1.41142,0,6.94268,3.891,8.54483,4.00539s8.54483,0,10.49031,0a3.04715,3.04715,0,0,1,2.97543,3.01358c0,1.25884-.15258,3.77651-3.20431,3.77651H28.347a1.79676,1.79676,0,0,0-2.02177,1.73567c0,.3624-1.10625.32425-1.10625.32425"/>
    <path class="cls-3" d="M9.57888,51.04872h5.722c2.74655,0,12.7791,6.256,17.58557,6.256S54.59184,46.50928,56.1177,45.51747a3.44834,3.44834,0,0,0,.99181-4.425c-.68664-1.48771-2.7084-2.1362-5.37866-.99181s-9.65109,4.158-9.65109,4.158l-2.74241.09808"/>
  </g>
</svg>
