<svg id="Слой_1" data-name="Слой 1" xmlns="http://www.w3.org/2000/svg" width="37" height="37" viewBox="0 0 37 37">
  <defs>
    <style>
      .cls-1, .cls-3 {
        fill: none;
        stroke-miterlimit: 10;
      }

      .cls-1 {
        stroke: #444f5a;
      }

      .cls-2 {
        fill: #ff2045;
      }

      .cls-3 {
        stroke: #ff2045;
      }
    </style>
  </defs>
  <title>_</title>
  <g>
    <rect class="cls-1" x="0.5" y="1.80229" width="31.36947" height="8.9403" rx="4.47014"/>
    <path class="cls-1" d="M23.6742,19.68289H4.97014A4.47014,4.47014,0,0,1,.5,15.21275h0a4.47014,4.47014,0,0,1,4.47014-4.47015H27.39932a4.47014,4.47014,0,0,1,4.47015,4.47015h0a4.51605,4.51605,0,0,1-.03126.53137"/>
    <path class="cls-1" d="M20.34119,28.62319H4.97014A4.47014,4.47014,0,0,1,.5,24.153h0a4.47014,4.47014,0,0,1,4.47014-4.47015H23.6742"/>
    <circle class="cls-2" cx="8.76063" cy="6.27244" r="1.6469"/>
    <circle class="cls-2" cx="8.76063" cy="15.21274" r="1.6469"/>
    <circle class="cls-2" cx="8.76063" cy="24.15304" r="1.6469"/>
    <line class="cls-1" x1="13.07393" y1="6.27244" x2="26.24911" y2="6.27244"/>
    <line class="cls-1" x1="13.07393" y1="15.21274" x2="26.24911" y2="15.21274"/>
    <line class="cls-1" x1="13.07393" y1="24.15304" x2="21.94888" y2="24.15304"/>
    <rect class="cls-3" x="23.27854" y="25.35554" width="13.22146" height="9.84217" rx="0.73218"/>
    <path class="cls-3" d="M26.33853,22.44469V19.14561a.76978.76978,0,0,1,.76978-.76978H33.5525a.76978.76978,0,0,1,.76978.76978V25.2379"/>
  </g>
</svg>
