<svg id="Слой_1" data-name="Слой 1" xmlns="http://www.w3.org/2000/svg" width="37" height="37" viewBox="0 0 37 37">
  <defs>
    <style>
      .cls-1, .cls-2 {
        fill: none;
        stroke-miterlimit: 10;
      }

      .cls-1 {
        stroke: #444f5a;
      }

      .cls-2 {
        stroke: #da203e;
        stroke-linecap: round;
      }
    </style>
  </defs>
  <title>_</title>
  <g>
    <path class="cls-1" d="M5.90525,26.45144,17.75841,36.16a1.17039,1.17039,0,0,0,1.48324,0l11.8531-9.70855a1.59605,1.59605,0,0,0,.58472-1.23475V1.65244a81.14944,81.14944,0,0,0-26.35894,0V25.21669A1.59609,1.59609,0,0,0,5.90525,26.45144Z"/>
    <path class="cls-1" d="M9.3551,24.43941l8.60644,7.04927a.8498.8498,0,0,0,1.077,0l8.6064-7.04927a1.15887,1.15887,0,0,0,.42456-.89654V5.04313a58.92169,58.92169,0,0,0-19.13892,0V23.54287A1.15887,1.15887,0,0,0,9.3551,24.43941Z"/>
    <polyline class="cls-2" points="14.551 18.973 17.013 21.203 23.859 14.28"/>
  </g>
</svg>
