<svg id="Слой_1" data-name="Слой 1" xmlns="http://www.w3.org/2000/svg" width="234" height="234" viewBox="0 0 234 234">
  <defs>
    <style>
      .cls-1 {
        fill: #23262c;
      }

      .cls-2 {
        fill: #262a30;
      }

      .cls-3 {
        fill: #282c33;
      }

      .cls-4 {
        fill: #48515e;
      }

      .cls-5 {
        fill: #da203e;
      }

      .cls-6 {
        fill: #e5385d;
      }

      .cls-7 {
        fill: #ba1c35;
      }

      .cls-8 {
        fill: #fff;
      }
    </style>
  </defs>
  <title>_</title>
  <g>
    <g>
      <circle class="cls-1" cx="117" cy="117" r="117"/>
      <circle class="cls-2" cx="117" cy="117" r="95.26923"/>
      <circle class="cls-3" cx="117" cy="117" r="73.88462"/>
      <path class="cls-4" d="M117.03239,218.92345l-1.00683-.00489.00976-1,.96485.0044Zm2.01368-.02051-.01954-1c.33106-.00635.66309-.01465.99415-.02442l.02929,1Q119.54753,218.89318,119.04607,218.90294Zm-5.03418-.023-1.00586-.03418.03711-.999.998.0332Zm8.0498-.08008-.04883-.999q.498-.02418.99512-.05322l.05859.998C122.73161,218.76524,122.39568,218.7838,122.06169,218.79991Zm-11.06641-.05127-1.0039-.063.0664-.998.9961.063Zm14.08106-.14111-.07813-.99707q.49806-.03882.99317-.08252l.08789.99609C125.74528,218.55333,125.41032,218.58165,125.07634,218.60753Zm-17.09277-.07813-1.002-.09277.09571-.99512.99414.0918Zm20.09863-.20263-.10547-.99414q.49658-.05347.99023-.11182l.11719.99316Q128.58464,218.27258,128.0822,218.32677Zm-23.10449-.10547c-.334-.03906-.666-.08008-.999-.12256l.127-.99219q.49365.06372.98925.12158Zm26.10254-.2627-.13672-.99023.9873-.1416.14649.98925Zm-29.09473-.13427c-.333-.04932-.66406-.09961-.99512-.15235l.15625-.9873c.32715.05175.65625.10156.98535.15039Zm32.08008-.32422-.166-.98633.98242-.17041.17578.98437ZM99.0031,217.339c-.33106-.05908-.66016-.11914-.99024-.18164l.18555-.98242q.48926.09228.98047.17969Zm38.03418-.38476-.19532-.98047.97657-.19971.20508.97852Zm-40.999-.18946q-.49218-.10252-.98437-.21093l.21484-.97657q.48633.10694.97461.209Zm43.95118-.44531-.22461-.97461.9707-.22851.23437.97168ZM93.091,216.10313q-.48926-.11792-.97754-.24072l.24414-.96973q.48194.12159.96777.2378Zm49.83105-.50634-.252-.96778q.48193-.126.96191-.25732l.26368.96484Q143.40935,215.4691,142.922,215.59679Zm-52.75781-.24366-.96973-.26953.27149-.96191.96191.2666Zm55.668-.56543-.2832-.959.95507-.28662.293.95605Zm-58.56934-.271q-.48486-.14794-.96679-.30029l.30273-.95313q.47607.1516.95508.29639Zm61.45508-.625-.3125-.9502.94629-.31494.32031.94727Zm-64.34277-.30225-.95606-.32763.32813-.94434.94824.32471Zm67.19824-.68017-.33984-.94043.93652-.34327.34766.9375Zm-70.05566-.33252-.94629-.356.35742-.93457.93652.353Zm72.88378-.73389-.36914-.92969.92676-.37109.375.92676Zm-75.708-.36377q-.46875-.18969-.93457-.38477l.38476-.92285q.4629.19336.92481.38086Zm78.49218-.78369-.39453-.919q.45556-.19555.90918-.39648l.4043.915Q157.64617,210.49717,157.18571,210.69542ZM75.90349,210.298l-.92188-.41211.41211-.91113.91406.4082Zm84.02832-.83106-.42188-.90722q.45264-.20947.89844-.42285l.43164.90234Q160.38737,209.25523,159.93181,209.4669Zm-86.78125-.43261q-.45556-.21827-.90918-.44l.4414-.89746q.44679.21973.89942.43506Zm89.49121-.877-.44727-.89453q.44385-.22193.88575-.44922l.457.88867Q163.092,207.93225,162.64177,208.15733Zm-92.20313-.46777-.89453-.46582.46485-.88477.88672.46192Zm94.874-.92236-.47266-.88086q.438-.23511.8711-.47559l.48437.875Q165.756,206.52892,165.31267,206.7672Zm-97.5459-.502-.87988-.49267.49218-.87012.87207.48779Zm100.17773-.96777-.50195-.86523.86035-.50293.50781.86132Zm-102.80273-.53564q-.43359-.25708-.86621-.519l.51953-.85449q.42627.25927.85644.51318Zm105.38769-1.01026-.52539-.85156q.42334-.26075.84278-.52686l.53515.84473C171.0988,203.39708,170.8156,203.57481,170.52946,203.75157Zm-107.96777-.56933-.84863-.543.543-.83985.84082.53809Zm110.50781-1.05372-.55078-.835q.416-.27392.82813-.55224l.55859.8291Q173.48943,201.85167,173.0695,202.12852Zm-113.03906-.60107q-.41895-.282-.833-.56885l.56836-.82226q.41016.28344.82324.562Zm115.53027-1.09668-.57421-.81934q.40869-.28491.81054-.57568l.584.8125Q175.97234,200.14122,175.56071,200.43077ZM57.55,199.798l-.81543-.59229.5918-.80664.80762.5874Zm120.45313-1.13867-.59766-.80176q.39844-.29736.793-.59961l.60742.79492C178.53923,198.256,178.27263,198.45811,178.0031,198.65929Zm-122.88086-.6626-.79785-.61572.61523-.78907.79.61084Zm125.26855-1.18018-.62109-.7832q.38964-.30981.77539-.62305l.63086.77637C180.91521,196.39806,180.65446,196.608,180.39079,196.81651Zm-127.64258-.6914-.77832-.63916.63672-.77051.77246.6333Zm129.97657-1.22168-.64453-.76368.75781-.64648.65234.75781Zm-132.292-.71875-.75878-.66162.66015-.751.752.65576Zm134.56836-1.26123-.666-.74512q.37061-.33252.7373-.66846l.67578.73828C185.50017,192.47423,185.25212,192.69981,185.00114,192.92345ZM48.175,192.17686l-.73926-.68261.68165-.73242.73339.67773Zm139.04492-1.30127-.68945-.72558q.36181-.34278.71875-.68945l.69727.71728Q187.58465,190.52794,187.21989,190.87559Zm-141.24121-.77148-.71777-.70459.70312-.71094.71192.69873Zm143.39844-1.34131-.71094-.7041q.35157-.35449.69922-.71094l.7168.69629Q189.7321,188.40513,189.37712,188.7628Zm-145.5332-.79443q-.3501-.36181-.69629-.72608l.72461-.68847q.34277.36034.69043.71826Zm147.627-1.38086-.73047-.68359q.34131-.364.67774-.73145l.73632.67578Q191.81462,186.21959,191.47087,186.58751Zm-149.69531-.81592q-.34131-.37134-.67578-.74658l.74414-.667q.33252.3706.668.73779Zm151.72558-1.4209-.75-.66211q.3296-.37279.65625-.751l.75586.65429Q193.83367,183.9735,193.50114,184.35069ZM39.7697,183.51378q-.32812-.3816-.65234-.76563l.76367-.64453q.32079.38013.64648.75781Zm155.69433-1.459-.76757-.63964q.31786-.38307.63281-.77l.77539.63086Q195.7868,181.6671,195.464,182.05479Zm-157.63085-.85546-.62989-.78321.78321-.623.624.77636Zm159.52734-1.49854-.78711-.61621q.30615-.39331.60937-.78906l.79493.60742Q197.67156,179.30358,197.36052,179.70079ZM35.967,178.8297l-.60546-.80078.79882-.60059.60157.79492Zm163.21875-1.53809-.80468-.59277q.29589-.40137.58593-.80664l.8125.584Q199.48357,176.88561,199.18571,177.29161Zm-165.01464-.88525-.582-.81836.81739-.57617.57715.81152Zm166.7705-1.57764-.82421-.56738.56347-.8252.82813.56055Zm-168.49316-.89648-.55762-.83448.832-.55371.55371.82862Zm170.17383-1.61719-.83985-.544q.271-.41821.53809-.83984l.8457.53418Q202.89666,171.89171,202.62224,172.31505ZM30.799,171.40831l-.53223-.85107.84961-.52637.52832.84424Zm173.42871-1.65723-.85547-.51758.51367-.85693.85937.50977Zm-175.002-.91308q-.25633-.43213-.50781-.86719l.86524-.501q.249.43066.502.8584ZM205.758,167.14171l-.87109-.49268.48828-.87256.875.48438Zm-178.02832-.91895-.48145-.87939.87891-.47754.47754.87353ZM207.20915,164.486l-.88476-.4668q.23291-.44165.46191-.88623l.88867.458C207.52068,163.89024,207.36638,164.18858,207.20915,164.486Zm-180.89648-.92041-.45508-.89356.89258-.45117.45117.88672Zm182.26855-1.77832-.89844-.44043.43555-.89991.90235.43164Zm-183.60644-.91846-.42774-.90723.90625-.42285.42383.89844Zm184.89648-1.82031-.91015-.41407q.20654-.45483.40917-.91259l.91407.40527C210.14763,158.43517,210.01091,158.74229,209.87126,159.04845ZM23.71892,158.1339q-.20361-.45851-.40137-.91993l.918-.3955q.19776.457.39746.91015Zm187.3623-1.86182-.92187-.3877q.19335-.46.38183-.92334l.92578.376Q211.278,155.80577,211.08122,156.27208Zm-188.53808-.9082q-.19044-.4673-.375-.93653l.93164-.36523q.18164.46362.36914.92383Zm189.665-1.90625-.9336-.3584q.17871-.46656.35352-.936l.9375.34961C212.44743,152.82872,212.32927,153.14366,212.20818,153.45763ZM21.44743,152.548l-.34668-.94434.94141-.33984.34277.93652Zm191.80274-1.936-.94336-.3291.32519-.94726.94727.32031Zm-192.81348-.90967q-.16113-.47752-.31836-.95605l.95117-.31055q.15381.47388.31446.94532ZM214.2072,147.735l-.95313-.30273q.15088-.47682.29688-.95557l.957.291Q214.36,147.25255,214.2072,147.735Zm-194.69727-.9082-.28906-.96387.959-.2832.2871.95507Zm195.56543-1.99024-.96289-.27246.26758-.96045.96484.2627ZM18.67107,143.9254l-.25977-.97266.9668-.2539.25781.96289Zm197.18457-2.00781-.97071-.24317.23828-.96826.97266.23438Zm-197.93653-.91748-.23144-.98.97461-.22461.22949.97021Zm198.62793-2.023-.97656-.21387.209-.97461.97852.2041Zm-199.292-.92334-.20215-.98682.98047-.19531.2002.977Zm199.89746-2.03516-.98242-.18457.17969-.981.98437.1753ZM16.6779,135.089l-.17285-.99121.98633-.167.1709.98242Zm200.99024-2.04638-.98828-.15528.15039-.98632.98925.14648ZM16.1906,132.1085l-.14356-.99609.99024-.13769.1416.9873Zm201.90527-2.05566-.99219-.126.12207-.99023.99317.11719Zm-202.30566-.9375-.11426-1,.99414-.1084.1123.99121Zm202.64453-2.064-.9961-.09668.09278-.99317.99609.08789ZM15.47868,126.111q-.04394-.50172-.084-1.0044l.998-.07617c.02441.33105.05273.66211.082.99268Zm203.20508-2.06934-.99805-.06738.06348-.99561.99805.0586ZM15.257,123.09874l-.05371-1.00488.998-.04981.05371.9961ZM218.84489,121.026l-1-.03809.03418-.99707,1,.0293Zm-203.72168-.94483-.02441-1.00342,1-.0205.02441.99462Zm203.79493-2.07471-1-.00878.00488-1.12452h1Zm-203.84082-.94287.0039-1.00683,1,.00976-.0039.9336ZM217.90153,114.88l-.02539-.99463,1-.0293.02539,1.00342Zm-201.78222-.80713-1-.0293.0332-1.00586,1,.03809Zm201.67676-2.17969-.05469-.99609.99805-.05859.05468,1.00488Zm-201.54883-.8081-.99805-.0586.0625-1.00439.99805.06738Zm201.35644-2.17676-.084-.99414.99609-.08789.084,1.00293ZM16.464,108.10216l-.99609-.08789.0918-1.002.99609.09668Zm200.8584-2.1709-.1123-.99121.99219-.11719.11425,1Zm-200.55468-.8042-.99219-.11719c.03906-.334.0791-.66748.12207-1.00049l.99219.12891C16.84685,104.46739,16.80681,104.797,16.76775,105.12706ZM216.95427,102.963l-.1416-.98731.98828-.14648.14355.99609Zm-199.793-.80078-.98926-.14649.15137-.99512.98828.15528Zm199.33691-2.15528-.17089-.98242.98437-.17578.17285.99121ZM17.63982,99.20958l-.98438-.17529.18164-.99024.98242.18457ZM215.95525,97.067l-.2002-.977.97852-.20508.20214.98584Zm-197.748-.79346-.97852-.2041.21094-.98437.97656.21386Zm197.11719-2.13086-.2295-.97021.97266-.23438.23145.98ZM18.86247,93.35509l-.97265-.2334c.0791-.32715.1582-.65332.24121-.97949l.96875.24609Q18.97819,92.87023,18.86247,93.35509Zm195.74317-2.11475-.25879-.96289.96484-.26367.26074.97265Zm-195.002-.78223-.96484-.26269.26855-.97022.96289.27247ZM213.80193,88.3585q-.14062-.47753-.28711-.9541l.957-.292c.09765.3208.19531.64258.28906.96484ZM20.43181,87.58409l-.957-.291.2998-.96583.95313.29981ZM212.90935,85.504q-.15381-.47314-.31446-.94433l.94727-.32227q.16113.4768.31836.95654ZM21.34782,84.7252l-.94726-.32031.32812-.956.94336.3291Zm190.58789-2.04785-.34277-.93652.9375-.34766.34668.94434ZM22.34978,81.89464l-.9375-.34668q.17432-.47462.35644-.94678l.9336.3584Q22.52361,81.42613,22.34978,81.89464ZM210.87712,79.881q-.1831-.46436-.37109-.92579l.92578-.37695c.12695.31055.251.62207.375.93457ZM23.43474,79.09776l-.92578-.376.38379-.93409.92382.38477Zm186.30469-1.97412-.39747-.91015.91407-.40528.40136.91895ZM24.60466,76.33507l-.916-.40235q.20363-.46289.41309-.92334l.91016.41407Q24.80534,75.87828,24.60466,76.33507Zm183.917-1.9292-.42578-.89942.90234-.43164.42774.90625ZM25.85466,73.611l-.90234-.43164.43847-.90772.89844.4375ZM207.22087,71.7213l-.45117-.88526.88867-.458.45508.894ZM27.18571,70.92393l-.88867-.458.46387-.89405.88672.46387Zm178.65723-1.84668-.47754-.87207.875-.48339.48145.87988Zm-177.248-.79833-.875-.48438.49122-.87939.87109.49023Zm175.792-1.80225-.50391-.85938.85938-.50976.50781.86523ZM30.0822,65.67735l-.85938-.50976.51758-.86475.85547.51758Zm172.76953-1.76172q-.2622-.4226-.52832-.84228l.84375-.53613q.26953.42407.53418.85205ZM31.64665,63.12218,30.801,62.588l.542-.84864.8418.541Zm169.59473-1.71973-.55274-.82764.82813-.55957.55859.83545Zm-167.957-.78613-.82813-.56055.56739-.832.82421.56738Zm166.27343-1.67969-.57714-.81152.8125-.583.582.81836ZM34.99528,58.1588l-.8125-.584q.29444-.40942.59375-.81591l.80469.59277Q35.28678,57.75378,34.99528,58.1588ZM197.801,56.52013l-.60059-.79346.79492-.60742.60645.80127ZM36.77946,55.7545l-.79492-.60742q.30615-.40064.61719-.79785l.78711.61621C37.18376,55.22716,36.98161,55.49034,36.77946,55.7545Zm159.19532-1.59668-.625-.77637.77734-.62988.62891.78223ZM38.631,53.40392l-.77539-.63086.63867-.77832.76953.63818Zm155.44824-1.55567q-.32226-.38086-.64746-.75732l.75781-.65332q.32813.38085.65332.76513ZM40.5529,51.10948l-.75781-.65234c.21875-.2544.44043-.50781.66211-.75977l.75.66113Q40.87761,50.732,40.5529,51.10948Zm151.56055-1.51514q-.33105-.3706-.667-.73681l.73632-.67578c.22754.248.45411.49658.67676.74658Zm-149.57422-.7207-.73828-.6748q.34131-.37208.68457-.74024l.73047.6836Q42.87468,48.5062,42.53923,48.87364ZM190.08513,47.401l-.69043-.71875.7168-.69678.69824.7251ZM44.591,46.69737l-.71875-.69629q.35156-.36182.707-.72021l.709.706C45.0529,46.22227,44.82146,46.45909,44.591,46.69737Zm143.40039-1.43066-.71192-.69776.69727-.71777.71777.70459Zm-141.28516-.6836-.69726-.71679c.24121-.23389.48242-.4668.72754-.69873l.6875.72558Q47.06217,44.23669,46.70622,44.58311Zm139.13086-1.38818-.73437-.67725.67578-.7373.73828.68164ZM48.881,42.53331l-.67578-.73828.74511-.67481.668.74317Zm134.7373-1.34717-.75195-.65527.65332-.75684.75879.66114ZM51.11443,40.548l-.65235-.75781.76367-.65235.64649.7627Zm130.22851-1.3042q-.38379-.3186-.77051-.63184l.62891-.77734q.39258.31786.78027.63965ZM53.40642,38.629l-.63086-.77539q.38964-.31786.7832-.63037l.623.78223Q53.79216,38.31529,53.40642,38.629Zm125.60351-1.25976-.79-.61035.60743-.79395.79785.61523ZM55.75212,36.78038l-.60742-.794q.39843-.30615.80273-.60742l.59766.80176Q56.14665,36.47813,55.75212,36.78038Zm120.87109-1.21729q-.40283-.29589-.80761-.58593l.584-.8125q.40869.2937.81543.59277Zm-118.47168-.563-.584-.81153q.40722-.2937.81836-.583l.57617.81738Q58.55486,34.70934,58.15153,35.00011Zm116.03223-1.17139-.82519-.5625.55859-.8291.833.56738Zm-113.583-.53467-.55859-.8291.834-.55762.55274.833Zm111.09278-1.12793c-.27832-.18017-.55957-.35937-.84082-.53711l.5332-.8457q.42774.26954.85059.543ZM63.09978,31.66026l-.53516-.84472c.2832-.1792.56641-.35694.85254-.5337l.52539.85059Q63.51921,31.39465,63.09978,31.66026Zm106.05273-1.08154q-.42773-.25854-.85742-.51318l.50977-.86036q.43359.25635.86523.51807ZM65.64372,30.10118l-.50976-.85937q.43067-.25709.86718-.50879l.5.86621Q66.07047,29.84825,65.64372,30.10118Zm100.9209-1.03467q-.43359-.24609-.87012-.48681l.48243-.876q.44238.2439.88183.49268Zm-98.331-.44629-.48438-.875q.43945-.24316.88184-.48193l.47461.88086Q68.66619,28.38,68.23357,28.62022Zm95.70117-.98877q-.44092-.23364-.88574-.46093l.457-.88965q.4497.23072.8955.46582Zm-93.07129-.416-.457-.88867q.4453-.23.89453-.45508l.44922.89355Q71.30485,26.98864,70.86345,27.21544Zm90.39746-.94092q-.44825-.219-.89941-.43359l.42968-.90332q.457.21753.90918.43945Zm-87.72559-.38428-.43164-.90234q.45264-.2168.90918-.42822l.41992.90722Q73.98161,25.67564,73.53532,25.89024ZM158.55,24.99913l-.915-.4082.4043-.915.9209.41113Zm-82.30761-.354-.4043-.915.918-.40039.39648.918ZM155.8,23.80382l-.92578-.38037.375-.92676.93359.3833Zm-76.81543-.32227-.37695-.92578c.31152-.12695.62207-.25195.93457-.375l.36719.93018Q79.44645,23.29332,78.98454,23.48155Zm74.02832-.79053-.9375-.35253.34766-.9375.94531.35546Zm-71.24121-.29541-.34961-.93652q.47169-.17651.94532-.34717l.33984.94043Q82.237,22.22155,81.77165,22.39561Zm68.42188-.73388q-.47169-.16407-.94727-.32373l.31836-.94825q.48047.16115.957.32764ZM84.589,21.39366l-.32031-.94726.9541-.31836.3125.95019Zm62.75293-.67578q-.47753-.15089-.957-.29639l.291-.957c.32324.09815.64453.19776.9668.29932Zm-59.90625-.2417-.293-.956.96484-.29.2832.959Zm57.03711-.61523q-.48047-.13551-.96093-.26612l.26172-.96484q.48632.13184.9707.269Zm-54.165-.2168-.26367-.96484.97266-.26026.25391.9668Zm51.27344-.55225-.96777-.2373.23437-.97266.97754.24024Zm-48.376-.19433-.23633-.97168q.48926-.11865.98144-.23194l.22461.97461Q93.68864,18.78063,93.20525,18.89757Zm45.46582-.48877-.97559-.2085.20508-.97851.9834.21045Zm-42.54981-.16992-.207-.97852q.4922-.104.9873-.20215l.19532.98047Q96.6076,18.13682,96.12126,18.23888Zm39.61914-.42579-.98144-.17919.17578-.98438.98926.18115Zm-36.68359-.146-.17774-.98438q.49512-.08862.99317-.17285l.166.98633Q99.54607,17.579,99.05681,17.6671Zm33.73633-.36133-.98536-.15039.14649-.98926.99512.15137Zm-30.78516-.123-.14844-.98925c.332-.04932.66407-.09717.99805-.14307l.13672.99023C102.66423,17.08653,102.33611,17.13341,102.008,17.18272Zm27.82422-.29785c-.33008-.042-.65918-.082-.98926-.1206l.11524-.99317q.501.05787.999.12158Zm-24.85938-.09863-.11914-.99316q.49952-.05934,1.002-.11377l.10742.99414Q105.46647,16.72765,104.97282,16.78624Zm21.8877-.23389q-.49659-.04761-.99316-.09131l.08593-.99609c.335.02881.66992.05957,1.00293.09229Zm-18.91406-.07519-.08985-.9961q.501-.04467,1.00391-.08447l.07812.99707Q108.44207,16.43322,107.94646,16.47716Zm15.93261-.16944c-.332-.02246-.66308-.04345-.99511-.0625l.05664-.998q.50389.02856,1.00488.0625ZM110.9279,16.256l-.05859-.99805,1.00488-.05469.04883.999Zm9.96582-.10547q-.49952-.01905-.99707-.03272l.02735-1q.50389.01392,1.00683.03369Zm-6.97656-.02735-.0293-1,1.00293-.0249.02149,1Zm3.98535-.04248-.90234-.0039-.09473-1,1.00488.0039Z"/>
      <path class="cls-4" d="M117.00017,197.38438a80.38452,80.38452,0,1,1,80.38476-80.38427A80.4755,80.4755,0,0,1,117.00017,197.38438Zm0-159.769a79.38452,79.38452,0,1,0,79.38476,79.38477A79.47494,79.47494,0,0,0,117.00017,37.61534Z"/>
      <path class="cls-4" d="M116.31853,176.25255q-.50538-.00587-1.00782-.01953l.02735-1q.49512.0139.99219.01953Zm2.0166-.01074-.02149-1q.49512-.011.98829-.02979l.03906.999Q118.83855,176.23009,118.33513,176.24181Zm-5.03809-.09961c-.33593-.02051-.6709-.04444-1.00683-.07032l.07812-.99707c.33008.02588.65918.04883.98926.06934Zm8.05762-.04346-.07227-.99707q.49512-.03663.98731-.08057l.08984.9961Q121.85857,176.06187,121.35466,176.09874Zm-11.07129-.21826q-.50244-.05714-1-.12207l.12891-.99121c.32617.04248.65527.082.98437.11963Zm14.08008-.07715-.12305-.99219c.3291-.041.65625-.08447.9834-.13037l.13867.99023Q124.8659,175.74132,124.36345,175.80333Zm-17.0752-.33887q-.498-.082-.99414-.17285l.17969-.9834q.4878.08936.97656.16992Zm20.06543-.10937-.17382-.98535q.48778-.0857.9746-.17969l.19141.98144Q127.85075,175.26744,127.35368,175.35509Zm-23.03613-.45948q-.49365-.10766-.98437-.22314l.23046-.97363q.48193.11426.9668.22021Zm26.001-.1416-.22461-.97461q.48486-.11133.96484-.23047l.24024.97071Q130.80973,174.64048,130.31853,174.754Zm-28.93946-.57812q-.48631-.13257-.96972-.273l.27734-.96094c.31836.09229.63574.18213.95606.269Zm31.86817-.17481-.27344-.96191q.479-.1355.95117-.2793l.291.957Q133.73406,173.86339,133.24724,174.00108Zm-34.76465-.69531q-.48194-.15821-.958-.32422l.32813-.94433c.31152.10839.62695.21484.94238.31836Zm37.65234-.208-.32226-.94629q.46875-.15966.93554-.32812l.3379.9414Q136.613,172.93541,136.13493,173.09776Zm-40.50879-.814q-.47315-.18237-.9414-.37354l.37695-.92578q.46.18677.92383.3667Zm43.34668-.23438-.37109-.92871c.30566-.12207.61133-.24658.91406-.374l.38672.92187Q139.43962,171.86266,138.97282,172.04942Zm-46.14746-.93213c-.30859-.13818-.61425-.27832-.91992-.42089l.42383-.90625q.4497.21093.9043.41406Zm48.917-.2583-.418-.9082c.29882-.1377.59765-.27783.89355-.42041l.43359.90039Q142.19891,170.649,141.74236,170.859ZM90.092,169.80821q-.45117-.23-.8955-.46777l.4707-.88184q.438.23364.87988.459Zm54.35743-.27978-.46289-.88672q.438-.22852.87207-.46533l.47851.87793C145.04216,169.21495,144.74724,169.37315,144.44939,169.52843Zm-57.02051-1.167q-.438-.25268-.8711-.51269l.51563-.85742c.2832.17041.56934.33838.85547.5039Zm59.6582-.30126-.50976-.86036q.42627-.252.84765-.51074l.52344.85254C147.66325,167.7169,147.37517,167.88927,147.08708,168.06017Zm-62.24219-1.27833q-.42333-.27391-.84277-.55566l.55664-.83008c.27539.18408.55078.36621.8291.5459Zm64.80274-.32177-.55274-.834q.41309-.27319.82227-.55322l.56445.8252Q150.06707,166.18224,149.64763,166.46007Zm-67.30176-1.38819q-.40869-.29515-.8125-.59716l.59766-.80176q.39843.29736.80078.58838Zm69.7793-.34277-.59571-.80273q.397-.29517.792-.59571l.60742.79492Q152.529,164.431,152.12517,164.72911ZM79.93669,163.2379q-.39258-.31568-.78027-.6377l.63867-.76953q.38232.31641.76855.62793Zm74.57129-.36182-.63281-.77441q.38232-.31349.76074-.6333l.64648.76269Q154.8986,162.557,154.508,162.87608Zm-76.88086-1.59082q-.37793-.33544-.74805-.67676l.67774-.73535q.36474.33546.73437.665Zm79.17188-.38281-.67188-.74121q.36621-.33178.72852-.67139l.68359.72949Q157.17155,160.56433,156.799,160.90245Zm-81.37989-1.68457q-.35887-.35376-.71191-.71338l.71289-.70019q.34716.35376.70019.70166Zm83.56739-.40332-.709-.70508q.34863-.35083.69336-.70849l.7207.69335Q159.34148,158.45763,158.9865,158.81456Zm-85.667-1.772q-.34131-.37134-.6748-.748l.74609-.665c.22071.24707.44141.49268.665.73633Zm87.7461-.42481-.74414-.668q.33105-.36914.65722-.74316l.75391.65625Q161.403,156.243,161.0656,156.61778Zm-89.7334-1.855q-.31933-.38745-.63477-.78125l.78125-.624q.30909.38672.625.76855Zm91.69922-.44433-.77735-.62989q.31349-.38524.61914-.77588l.78711.61719Q163.34832,153.92687,163.03142,154.31847ZM69.466,152.3878q-.30176-.40356-.59571-.81347l.8125-.583q.28858.40137.584.79785Zm95.41113-.46631-.80664-.59082q.293-.3999.5791-.80566l.81641.57617Q165.176,151.51426,164.87712,151.92149Zm-97.15527-2.001q-.27833-.41822-.55176-.84082l.83984-.542q.26954.416.544.82715Zm98.88086-.48926-.83789-.54688q.27246-.41527.53711-.83545l.8457.53321C166.96892,148.86681,166.7863,149.15,166.60271,149.43126ZM66.10759,147.36974c-.17285-.2876-.3418-.57666-.50977-.86768l.86719-.499q.24609.4292.5.853Zm102.08887-.51416-.86524-.50293q.25048-.42995.49512-.86329l.87109.49122Q168.44987,146.42,168.19646,146.85558ZM64.62321,144.73985q-.23437-.44312-.46289-.89062l.89063-.45508q.22558.44019.457.87793Zm105.03418-.5376-.88867-.459q.22852-.44164.44922-.88672l.89649.44434Q169.88883,143.75353,169.65739,144.20225Zm-106.3789-2.16113q-.2124-.45557-.417-.916l.91406-.40528q.20069.45117.40918.89746Zm107.70117-.56543-.91016-.415q.20655-.45191.40332-.90771l.918.39746Q171.19011,141.01476,170.97966,141.47569ZM62.07243,139.276q-.189-.46656-.37109-.937l.93359-.36035q.17871.4629.36524.92237Zm110.0918-.59327-.93164-.36523q.18164-.46288.35644-.9292l.9375.35059Q172.34929,138.21274,172.16423,138.68272ZM61.007,136.44542q-.16405-.47535-.32226-.95459l.94922-.31348q.15526.47169.31836.93994Zm112.19336-.61377-.94726-.31836q.1582-.47094.30761-.9458l.95313.30078Q173.3615,135.35168,173.20036,135.83165ZM60.089,133.56358q-.13916-.48339-.27246-.96972l.96485-.26368q.13037.479.26855.95508Zm113.999-.62939-.96289-.2666q.13184-.47754.25683-.958l.96875.252Q174.22331,132.44933,174.08806,132.93419Zm-114.76758-2.2959q-.11573-.49-.22266-.98242l.97657-.21387q.10694.48486.21875.96777Zm115.50488-.63672-.97656-.2168q.1084-.48413.209-.97021l.97852.20215C174.96892,129.34581,174.89763,129.67393,174.82536,130.00157Zm-116.123-2.32422q-.08935-.49512-.17188-.99267l.98633-.16407c.05469.32666.11035.65284.16992.978Zm116.708-.64453-.98632-.165q.082-.48778.1582-.98047l.98828.15235C175.5197,126.37169,175.465,126.70274,175.41032,127.03282ZM58.23747,124.68907q-.06446-.49952-.12109-1.00146l.99414-.11133q.05419.49291.11914.98389Zm117.60449-.64844-.99218-.11718q.05712-.49146.10742-.98487l.99414.09961Q175.90154,123.54063,175.842,124.04063ZM57.926,121.68175q-.041-.50172-.07129-1.00635l.998-.06152q.03075.49584.06933.98877Zm118.19531-.65186-.99805-.06738q.0337-.49365.0586-.98926l.998.04981Q176.15495,120.52769,176.12126,121.02989ZM57.76677,118.65977q-.01319-.50171-.01953-1.00585l1-.01172q.00585.49657.01953.99121Zm118.48047-.65087-1-.01758q.00879-.49438.00879-.99121l-.001-.29639h1l.001.2915C176.256,117.337,176.2531,117.67345,176.24724,118.0089ZM58.759,115.66026l-1-.02343q.01171-.50465.03125-1.00684l1,.03809Q58.77116,115.16319,58.759,115.66026Zm116.45312-.93506c-.01269-.33105-.02734-.66113-.0459-.99023l.99805-.05566c.01855.335.03516.67089.04785,1.00781ZM58.90056,112.69005l-.998-.07324q.03809-.50391.083-1.00538l.99609.09082Q58.93621,112.19518,58.90056,112.69005Zm116.12305-.93213c-.03028-.33008-.06153-.65918-.09668-.98779l.99414-.10547q.05273.50024.09863,1.00244ZM59.19255,109.73009l-.99219-.12305c.041-.334.08594-.66748.13282-1l.99023.14063C59.27653,109.07433,59.23357,109.402,59.19255,109.73009Zm115.49219-.92481q-.07032-.49291-.14746-.98291l.98828-.15527c.05176.33057.10058.66211.14941.9956ZM59.63493,106.78966l-.98437-.17285q.08643-.49733.18262-.9917l.98242.19043C59.75212,106.13927,59.69255,106.464,59.63493,106.78966Zm114.5586-.91895c-.0625-.32519-.12891-.64941-.19629-.97265l.97851-.20508q.104.49218.2002.9873ZM60.22771,103.87755l-.97461-.22559c.07617-.32763.15332-.65429.23437-.98l.97071.24024Q60.33952,103.39342,60.22771,103.87755Zm113.32715-.91065q-.11866-.48193-.24708-.96l.9668-.25781q.12891.48707.251.97754ZM60.96794,100.99767l-.96094-.2754c.09278-.32324.18653-.6455.28418-.96679l.957.291Q61.10466,100.51964,60.96794,100.99767Zm111.79883-.89747q-.14355-.47534-.2959-.94677l.95313-.30567q.15234.47975.2998.96241ZM61.85857,98.15343l-.94532-.32325q.1626-.47973.335-.95507l.94141.33886Q62.02117,97.68272,61.85857,98.15343Zm109.97461-.876q-.16846-.46728-.34375-.93066l.93554-.3545q.17871.471.34961.94532ZM62.89568,95.357l-.92774-.37109q.1875-.47022.38379-.93653l.92188.38867Q63.08025,94.89586,62.89568,95.357ZM170.756,94.51085q-.189-.45557-.38867-.90625l.916-.40332q.20216.46.39649.9248ZM64.07536,92.61876l-.9082-.418q.21093-.46.43164-.91553l.90039.43653Q64.28239,92.16709,64.07536,92.61876Zm105.46778-.81006q-.21534-.44677-.43653-.88867l.89453-.44727q.22413.44825.44239.90137ZM65.39275,89.94688,64.508,89.482q.23438-.44751.47754-.89062l.877.47949Q65.62517,89.50669,65.39275,89.94688Zm102.79785-.77832c-.15918-.28955-.31836-.57812-.48145-.86523l.86914-.49316c.166.291.32813.58349.48926.87792ZM66.84587,87.34532l-.86133-.50976q.25782-.43434.52246-.86426l.85157.52441C67.18571,86.77745,67.01384,87.06065,66.84587,87.34532Zm99.8584-.74609q-.25782-.42187-.52344-.83838l.84375-.53809q.26954.42482.5332.854Zm-98.27539-1.7749-.834-.55274q.27979-.42114.56543-.83691l.82422.56738Q68.70184,84.41075,68.42888,84.82433ZM165.089,84.109q-.28125-.40869-.5664-.812l.81543-.5791q.29.41016.57519.82471ZM70.13786,82.38634l-.80468-.59473c.20019-.27051.40234-.54.60937-.80713l.791.61035Q70.4318,81.98815,70.13786,82.38634Zm93.21-.68409q-.30029-.394-.60742-.7832l.78516-.61914q.312.39477.61719.79492Zm-91.37988-1.6621-.77344-.63477q.32081-.39037.64746-.77393l.76172.64747Q72.28289,79.65684,71.96794,80.04015Zm89.51953-.6543q-.31934-.37793-.64648-.75049l.75195-.65918q.33252.3794.6582.76416ZM73.91325,77.79063l-.74023-.67382q.33984-.37208.68457-.73877l.72852.68457Q74.24772,77.423,73.91325,77.79063Zm85.59766-.62353q-.33984-.36182-.68457-.71826l.71875-.69532c.2334.24073.46387.48389.69434.728Zm-83.54-1.52442-.70508-.709q.35742-.356.72266-.70508l.69141.72266C76.4406,75.17979,76.20525,75.41026,75.97087,75.64268Zm81.45117-.59326q-.356-.3435-.71875-.68115l.68164-.73242c.2461.22949.49121.46094.73243.69482ZM78.134,73.60411l-.668-.74512q.37645-.33618.75683-.666l.6543.75586Q78.50212,73.2733,78.134,73.60411Zm77.0957-.563q-.375-.32519-.75391-.64551l.64453-.76464q.38526.32445.76563.65527Zm-74.834-1.36377L79.76677,70.9q.39111-.31714.78906-.62695l.61524.78808Q80.77995,71.36584,80.39568,71.67735Zm72.542-.53125c-.26172-.20459-.52344-.40674-.78809-.60693l.60547-.79688q.3999.3047.79785.61573ZM82.7531,69.86827l-.58985-.80762q.40724-.29662.81934-.58593l.57422.81836Q83.15251,69.57725,82.7531,69.86827ZM150.55,69.36778q-.40577-.28564-.8164-.56494l.5625-.82715q.41748.28491.83007.57569ZM85.19743,68.18224l-.54687-.8379c.28027-.18261.56347-.36376.84668-.54248l.5332.84571Q85.61149,67.91124,85.19743,68.18224Zm62.874-.46875q-.41748-.26514-.8418-.52247l.51953-.85449q.43214.263.85938.53321ZM87.7238,66.62364l-.50391-.86426q.43506-.25341.874-.499l.48828.873C88.29509,66.29405,88.008,66.45763,87.7238,66.62364Zm57.792-.43555q-.43359-.24389-.86914-.47949l.47461-.87988q.44532.24024.88477.48828Zm-55.1914-.99218-.459-.88867q.44678-.23.89746-.45362l.44336.89649C90.9113,64.8961,90.61638,65.04454,90.32439,65.19591Zm52.55859-.40137c-.2959-.147-.59473-.292-.89355-.43408l.42968-.90332q.457.21753.90918.44189Zm-49.88965-.88965-.41211-.91113q.4585-.20655.918-.40625l.39844.917Q93.44352,63.70153,92.99333,63.90489Zm47.18848-.3667q-.45557-.19774-.916-.38818l.38282-.92383q.46728.19337.93164.395Zm-44.459-.7876-.36523-.93066q.46875-.18384.94141-.36035l.34961.93652Q96.18424,62.5697,95.72282,62.75059Zm41.69239-.3291q-.46436-.17431-.9336-.34082l.334-.94238q.47754.16919.95117.34668ZM98.51872,61.736l-.3164-.94825q.47607-.15966.959-.31152l.30078.95313Q98.98894,61.57945,98.51872,61.736Zm36.07715-.2876q-.47168-.14941-.94629-.291l.28516-.958q.48339.14355.96387.29589Zm-33.2334-.58252-.26953-.96289q.48486-.1355.97363-.26221l.252.96777Q101.83952,60.733,101.36247,60.86583Zm30.377-.24121q-.479-.12525-.96192-.24219l.23633-.97168q.48926.11865.97754.24609Zm-27.49317-.48047-.21875-.97559q.49219-.11059.98633-.21142l.20117.97949Q104.73015,60.03624,104.24626,60.14415Zm24.59668-.1958q-.48339-.10035-.97168-.19238l.18555-.98243q.49657.09375.98926.19532Zm-21.67969-.37744-.168-.98633q.49659-.08423.9961-.16016l.15039.98828Q107.651,59.48742,107.16325,59.57091Zm18.75391-.14893q-.4878-.07543-.98047-.14209l.13477-.99121q.501.06812.998.145Zm-15.81152-.2749-.11719-.99316q.49952-.05934,1.00293-.10938l.09961.99512Q110.59587,59.08873,110.10564,59.14708Zm12.86328-.10156q-.4922-.05054-.98731-.09229l.084-.99609q.50389.04248,1.00488.09326Zm-9.90235-.1709-.0664-.998q.50244-.033,1.00683-.05859l.04981.999Q113.56022,58.84117,113.06657,58.87462Zm6.9375-.0542q-.49365-.02563-.99023-.04248l.0332-.999q.50538.01684,1.00782.04248Zm-3.96484-.06934-.01758-1c.32617-.00537.65918-.0039.97949-.00732l.0293,1C116.66521,58.74181,116.35661,58.7462,116.03923,58.75108Z"/>
    </g>
    <g>
      <g>
        <path class="cls-5" d="M120.01884,57.46278s-13.75286,16.93773-47.773,14.332c.10855,58.77532.10855,59.644.10855,59.644-.10855,9.76766,23.19883,36.19169,47.6645,44.58819,24.46558-8.3965,47.66451-33.97438,47.66451-44.58819,0,0,0-.86865.10855-59.644C133.7717,74.40051,120.01884,57.46278,120.01884,57.46278Z"/>
        <path class="cls-6" d="M120.01872,176.55577l-.16211-.05566c-23.96386-8.22461-48.11523-34.85694-48.002-45.0669,0-.00244,0-1.104-.1084-59.63769l-.001-.541.53907.0415c33.32715,2.54786,47.21-13.981,47.34668-14.14843l.38769-.47608.3877.47608c.13672.16748,14.01269,16.70312,47.34765,14.14843l.53907-.0415-.001.541c-.1084,58.53369-.1084,59.63525-.1084,59.64306,0,10.75342-23.25,36.56641-48.00293,45.06153ZM72.74724,72.33263c.10742,58.24511.10742,59.106.10742,59.106-.11035,9.9336,23.59375,35.8877,47.16406,44.05957,24.34375-8.43115,47.165-33.59814,47.165-44.05957,0,0,0-.86084.10742-59.106-30.44726,2.15918-44.80371-11.48731-47.27246-14.1211C117.55,60.84581,103.20036,74.50108,72.74724,72.33263Z"/>
      </g>
      <path class="cls-7" d="M120.01884,74.74484s-9.74359,12-33.84613,10.15387c.07691,41.641.07691,42.25641.07691,42.25641-.17951,4.923,16.43585,25.641,33.76922,31.58972,17.33332-5.94873,33.94873-26.66669,33.76923-31.58972,0,0,0-.61542.0769-42.25641C129.76243,86.74484,120.01884,74.74484,120.01884,74.74484Z"/>
      <polygon class="cls-8" points="157.577 88.404 166.378 97.258 120.839 142.053 100.275 122.129 108.839 113.642 120.737 125.514 157.577 88.404"/>
    </g>
  </g>
</svg>
