<svg id="Слой_1" data-name="Слой 1" xmlns="http://www.w3.org/2000/svg" width="37" height="37" viewBox="0 0 37 37">
  <defs>
    <style>
      .cls-1, .cls-2 {
        fill: none;
        stroke: #444f5a;
        stroke-miterlimit: 10;
      }

      .cls-1 {
        stroke-linecap: round;
      }

      .cls-2 {
        stroke-linecap: square;
      }

      .cls-3 {
        fill: #ff2045;
      }
    </style>
  </defs>
  <title>_</title>
  <g>
    <path class="cls-1" d="M35.97445,17.97445a17.47445,17.47445,0,0,0-34.9489,0H8.86833a9.63167,9.63167,0,0,1,19.26334,0Z"/>
    <line class="cls-2" x1="18.31768" y1="0.50167" x2="18.31768" y2="4.5831"/>
    <line class="cls-2" x1="12.1227" y1="1.83596" x2="13.51865" y2="5.47255"/>
    <line class="cls-2" x1="6.94496" y1="5.34376" x2="9.35712" y2="8.02274"/>
    <line class="cls-2" x1="3.21569" y1="10.2796" x2="6.3859" y2="11.89491"/>
    <g>
      <line class="cls-2" x1="24.51608" y1="1.6622" x2="23.05342" y2="5.47255"/>
      <line class="cls-2" x1="29.94597" y1="4.98964" x2="27.21495" y2="8.02274"/>
      <line class="cls-2" x1="33.82276" y1="10.04197" x2="30.18617" y2="11.89491"/>
    </g>
    <path class="cls-3" d="M20.80522,20.51213a3.26008,3.26008,0,0,1-4.61044-4.61045c1.27314-1.27314,11.4484-8.66389,11.4484-8.66389S22.07836,19.239,20.80522,20.51213Z"/>
    <line class="cls-2" x1="1.87788" y1="25.34896" x2="7.42981" y2="25.34896"/>
    <line class="cls-2" x1="29.34447" y1="25.34896" x2="34.89641" y2="25.34896"/>
    <line class="cls-2" x1="12.27428" y1="28.65722" x2="8.69652" y2="33.73077"/>
    <line class="cls-2" x1="24.45734" y1="28.65722" x2="28.0351" y2="33.73077"/>
    <line class="cls-2" x1="18.31768" y1="31.19399" x2="18.31768" y2="36.5"/>
  </g>
</svg>
