<svg id="Слой_1" data-name="Слой 1" xmlns="http://www.w3.org/2000/svg" width="37" height="37" viewBox="0 0 37 37">
  <defs>
    <style>
      .cls-1, .cls-3 {
        fill: none;
        stroke-miterlimit: 10;
      }

      .cls-1 {
        stroke: #444f5a;
        stroke-linecap: round;
      }

      .cls-2 {
        fill: #ff2045;
      }

      .cls-3 {
        stroke: #ff2045;
      }
    </style>
  </defs>
  <title>_</title>
  <g>
    <rect class="cls-1" x="0.5" y="4.73297" width="36" height="27.53407" rx="0.75165"/>
    <circle class="cls-2" cx="4.12967" cy="8.73846" r="1.66154"/>
    <circle class="cls-2" cx="29.29011" cy="8.73846" r="1.66154"/>
    <circle class="cls-2" cx="4.12967" cy="28.51868" r="1.66154"/>
    <circle class="cls-2" cx="29.29011" cy="28.51868" r="1.66154"/>
    <path class="cls-1" d="M30.36811,24.46036V12.38142a4.76055,4.76055,0,0,1-4.7604-4.76066H8.22746a4.76056,4.76056,0,0,1-4.76041,4.76066V24.46036a4.7605,4.7605,0,0,1,4.76041,4.7604H25.60771A4.76049,4.76049,0,0,1,30.36811,24.46036Z"/>
    <path class="cls-3" d="M12.88242,15.96813H9.77033a1.01538,1.01538,0,0,0-1.01538,1.01539h0A1.01538,1.01538,0,0,0,9.77033,17.9989H11.3a1.5956,1.5956,0,0,1,1.5956,1.5956h0A1.5956,1.5956,0,0,1,11.3,21.19011H8.38462"/>
    <path class="cls-3" d="M18.97473,15.96813H15.86264a1.01539,1.01539,0,0,0-1.01539,1.01539h0a1.01539,1.01539,0,0,0,1.01539,1.01538h1.52967a1.5956,1.5956,0,0,1,1.5956,1.5956h0a1.5956,1.5956,0,0,1-1.5956,1.5956H14.48718"/>
    <path class="cls-3" d="M20.93956,15.96813h3.19121a.94945.94945,0,0,1,.94945.94945v3.32308a.94945.94945,0,0,1-.94945.94945H20.93956a0,0,0,0,1,0,0v-5.222A0,0,0,0,1,20.93956,15.96813Z"/>
    <rect class="cls-1" x="33.49341" y="9.67802" width="3.00659" height="16.57582"/>
    <line class="cls-1" x1="33.49341" y1="24.1967" x2="36.5" y2="24.1967"/>
    <line class="cls-1" x1="33.49341" y1="22.08681" x2="36.5" y2="22.08681"/>
    <line class="cls-1" x1="33.49341" y1="19.02088" x2="36.5" y2="19.02088"/>
    <line class="cls-1" x1="33.49341" y1="16.91099" x2="36.5" y2="16.91099"/>
    <line class="cls-1" x1="33.49341" y1="14.8011" x2="36.5" y2="14.8011"/>
    <line class="cls-1" x1="33.49341" y1="12.69121" x2="36.5" y2="12.69121"/>
  </g>
</svg>
