<svg id="Слой_1" data-name="Слой 1" xmlns="http://www.w3.org/2000/svg" width="37" height="37" viewBox="0 0 37 37">
  <defs>
    <style>
      .cls-1, .cls-2 {
        fill: none;
        stroke-miterlimit: 10;
      }

      .cls-1 {
        stroke: #444f5a;
      }

      .cls-2 {
        stroke: #ff2045;
      }
    </style>
  </defs>
  <title>_</title>
  <g>
    <path class="cls-1" d="M15.31538,7.238a3.4219,3.4219,0,0,0-.40229-.02387H11.3c-4.77392,0-5.66088,3.07826-5.66088,6.32609V15.251a.9429.9429,0,0,0-1.13475.959V18.5581c0,.49629.86085.89308.86085.89308a14.14349,14.14349,0,0,0,2.38693,3.208c.0783,1.45529,0,3.53891,0,3.53891S.5,30.49765.5,33.01122V34.8467H8.87392"/>
    <path class="cls-2" d="M27.08458,24.61416s-.08121-2.46523,0-4.187a16.86151,16.86151,0,0,0,2.47559-3.7956s.89289-.46945.89289-1.05664v-2.7782a1.00441,1.00441,0,0,0-1.177-1.13463V7.00553c0-2.23051-2.02922-4.85223-4.34245-4.85223H19.65773c-2.31329,0-4.34251,2.62172-4.34251,4.85223V11.662a1.00437,1.00437,0,0,0-1.1769,1.13463v2.7782c0,.58719.89282,1.05664.89282,1.05664a16.86151,16.86151,0,0,0,2.47559,3.7956c.08121,1.72182,0,4.187,0,4.187s-9.41542,5.087-9.41542,8.0609V34.8467H36.5V32.67506C36.5,29.70112,27.08458,24.61416,27.08458,24.61416Z"/>
  </g>
</svg>
